<svg xmlns="http://www.w3.org/2000/svg" xmlns:xlink="http://www.w3.org/1999/xlink" xmlns:xodm="http://www.corel.com/coreldraw/odm/2003" xml:space="preserve" width="150.472mm" height="67.233mm" style="shape-rendering:geometricPrecision; text-rendering:geometricPrecision; image-rendering:optimizeQuality; fill-rule:evenodd; clip-rule:evenodd" viewBox="0 0 15047.28 6723.31">
 <defs>
  <style type="text/css">
   <![CDATA[
    .fil1 {fill:#417236}
    .fil2 {fill:#1C723B;fill-rule:nonzero}
    .fil0 {fill:#1F2C4E;fill-rule:nonzero}
    .fil4 {fill:#F8FBF8;fill-rule:nonzero}
    .fil3 {fill:white;fill-rule:nonzero}
   ]]>
  </style>
 </defs>
 <g id="Camada_x0020_1">
  <metadata id="CorelCorpID_0Corel-Layer"></metadata>
  <g id="_1835003914608">
   <path class="fil0" d="M15002.56 1849.16l0 0 0 745.5c0,165.86 -13.22,287.19 -39.47,366.14 -26.25,79.14 -70.97,150.11 -134.17,210.78 -65.72,65.92 -147.39,113.17 -244.61,145.06 -97.22,31.69 -213.11,47.44 -344.56,47.44 -131.44,0 -244.61,-15.75 -341.83,-47.44 -97.42,-31.69 -178.89,-79.14 -247.33,-145.06 -63.19,-60.67 -107.92,-129.11 -134.17,-210.78 -26.44,-81.47 -39.47,-202.81 -39.47,-368.86l0 -745.31 497.19 0 0 779.72c0,121.14 21,210.78 60.67,266 42,55.42 107.92,81.67 199.89,81.67 91.97,0 157.69,-26.25 199.89,-78.94 39.47,-52.69 60.47,-142.33 60.47,-266.19l0 -779.72 507.5 -0.01zm-1904.39 0l0 0 0 1459.31 -478.72 0 0 -237.03c-68.25,100.14 -144.67,176.56 -228.67,224 -84.19,47.44 -184.14,71.17 -299.83,71.17 -197.36,0 -355.06,-71.17 -470.75,-213.31 -118.42,-142.33 -176.17,-334.44 -176.17,-571.67 0,-239.75 60.47,-426.81 184.14,-568.94 123.67,-139.61 289.33,-210.78 497.19,-210.78 110.44,0 207.67,23.72 286.61,71.17 78.94,47.44 149.92,118.61 205.14,216.03l0 -239.75 481.06 0 0 -0.2zm-457.53 727.03l0 0c0,-113.36 -31.5,-202.81 -91.97,-271.25 -60.67,-65.72 -144.67,-100.14 -249.86,-100.14 -105.19,0 -189.39,34.22 -249.86,100.14 -60.67,65.92 -92.17,155.36 -92.17,271.25 0,113.36 31.5,202.81 92.17,268.72 60.47,65.92 144.67,97.42 249.86,97.42 105.19,0 189.19,-31.5 249.86,-97.42 60.28,-63.19 91.97,-155.36 91.97,-268.72zm-2456.81 732.28l0 0 0 -1459.31 491.95 0 0 345.14c49.97,-126.39 118.42,-218.56 207.86,-281.94 86.72,-63.19 194.44,-94.69 318.11,-94.69 21,0 42.19,0 63.19,2.53 21,2.53 42,5.25 63,7.97l-49.97 468.81c-31.5,-10.5 -60.47,-18.47 -92.17,-23.72 -31.5,-5.25 -60.47,-7.78 -86.72,-7.78 -126.19,0 -223.61,39.47 -292.06,115.89 -68.44,76.42 -102.47,184.33 -102.47,326.67l0 605.89 -520.91 -0.02 0 -5.44 0.19 0zm-920.5 0l0 0 0 -1459.31 518.2 0 0 1459.31 -518.2 0zm-28.97 -1915.09l0 0c0,-78.94 28.97,-144.86 84.19,-200.08 55.22,-55.22 123.67,-81.67 202.61,-81.67 81.67,0 149.92,26.44 205.14,81.67 55.22,52.69 81.47,121.14 81.47,200.08 0,79.14 -28.78,147.58 -84,202.81 -55.22,55.42 -123.67,84.39 -202.61,84.39 -78.94,0 -144.67,-28.97 -202.61,-84.39 -55.22,-57.75 -84.19,-126.19 -84.19,-202.81zm-1454.44 1135.37l0 -445.08 1144.11 -0.01c0,13.22 2.53,31.5 2.53,47.44 0,18.47 0,42.19 0,76.42 0,363.61 -97.22,648.08 -291.86,848.36 -194.64,200.28 -468.22,302.94 -820.75,302.94 -173.64,0 -326.08,-26.25 -462.97,-76.42 -133.97,-49.97 -255.11,-129.11 -360.31,-237.03 -99.94,-100.14 -178.89,-221.28 -236.64,-358.36 -55.22,-137.08 -84.19,-281.75 -84.19,-434.58 0,-158.08 26.25,-302.94 81.67,-434.58 55.22,-131.83 136.69,-252.97 244.61,-358.36 107.92,-102.67 231.39,-181.81 368.28,-234.5 139.42,-52.69 289.33,-78.94 449.75,-78.94 210.39,0 394.53,42 554.94,123.67 160.42,81.67 297.31,202.81 407.75,366.14l-504.97 239.56c-60.67,-81.47 -128.92,-142.14 -202.61,-181.81 -76.22,-39.47 -160.42,-60.67 -252.58,-60.67 -173.44,0 -313.06,57.94 -413,173.83 -99.94,115.89 -149.92,271.25 -149.92,471.53 0,200.08 49.97,360.89 149.92,474.25 99.94,115.89 236.64,173.83 413,173.83 147.39,0 270.86,-36.94 371,-107.92 99.94,-71.17 157.89,-165.86 173.64,-287.19l-581.4 0 0 -2.52z"></path>
   <path class="fil0" d="M14996.92 1843.52l0 0 0 745.5c0,165.86 -13.22,287.19 -39.47,366.14 -26.44,78.94 -70.97,150.11 -134.17,210.78 -65.72,65.72 -147.19,113.17 -244.61,144.86 -97.42,31.69 -213.11,47.44 -344.56,47.44 -131.64,0 -244.61,-15.75 -342.03,-47.44 -97.22,-31.5 -178.89,-79.14 -247.14,-144.86 -63.19,-60.67 -107.92,-129.11 -134.17,-210.78 -26.25,-81.67 -39.47,-202.81 -39.47,-368.86l0 -745.5 497.2 0 0 779.72c0,121.14 21,210.78 60.47,266 42,55.42 107.92,81.67 199.89,81.67 91.97,0 157.89,-26.25 199.89,-78.94 39.47,-52.69 60.47,-142.33 60.47,-266l0 -779.72 507.7 -0.01zm-1904.39 0l0 0 0 1459.31 -478.72 0 0 -237.22c-68.44,100.14 -144.67,176.56 -228.86,224 -84,47.44 -184.14,71.17 -299.64,71.17 -197.36,0 -355.06,-71.17 -470.94,-213.31 -118.22,-142.33 -176.17,-334.44 -176.17,-571.67 0,-239.75 60.67,-426.61 184.14,-568.94 123.67,-139.61 289.33,-210.78 497,-210.78 110.64,0 207.86,23.72 286.81,71.17 78.94,47.44 149.92,118.61 205.14,216.03l0 -239.75 481.24 -0.01zm-457.72 727.03l0 0c0,-113.36 -31.5,-202.81 -91.97,-271.44 -60.47,-65.72 -144.67,-100.14 -249.86,-100.14 -105.19,0 -189.19,34.22 -249.86,100.14 -60.47,65.92 -91.97,155.36 -91.97,271.44 0,113.36 31.5,202.81 91.97,268.72 60.67,65.92 144.67,97.42 249.86,97.42 105.19,0 189.39,-31.69 249.86,-97.42 60.47,-63.39 91.97,-155.55 91.97,-268.72zm-2456.61 732.28l0 0 0 -1459.31 491.75 0 0 345.14c49.97,-126.39 118.42,-218.56 207.86,-281.94 86.72,-63.19 194.64,-94.69 318.31,-94.69 21,0 42,0 63,2.53 21.19,2.72 42.19,5.25 63.19,7.97l-49.97 468.81c-31.5,-10.5 -60.47,-18.47 -91.97,-23.72 -31.5,-5.25 -60.47,-7.78 -86.72,-7.78 -126.19,0 -223.61,39.47 -292.06,115.89 -68.44,76.42 -102.47,184.33 -102.47,326.67l0 605.89 -520.73 -0.02 0 -5.44 -0.19 0zm-920.5 0l0 0 0 -1459.31 518.19 0 0 1459.31 -518.19 0zm-28.98 -1915.08l0 0c0,-79.14 28.97,-145.06 84.19,-200.28 55.22,-55.22 123.67,-81.67 202.42,-81.67 81.67,0 149.92,26.44 205.14,81.67 55.42,52.69 81.67,121.14 81.67,200.28 0,78.94 -28.97,147.39 -84.19,202.81 -55.22,55.42 -123.67,84.39 -202.42,84.39 -78.75,0 -144.67,-28.97 -202.42,-84.39 -55.41,-57.95 -84.39,-126.4 -84.39,-202.81zm-1454.64 1135.36l0 -445.28 1144.12 0c0,13.22 2.53,31.69 2.53,47.44 0,18.47 0,42.19 0,76.42 0,363.42 -97.42,648.08 -291.86,848.17 -194.64,200.28 -468.22,302.94 -820.75,302.94 -173.64,0 -326.28,-26.25 -462.97,-76.42 -134.17,-49.97 -255.11,-129.11 -360.31,-237.03 -99.94,-100.14 -178.89,-221.28 -236.64,-358.36 -55.42,-136.89 -84.19,-281.75 -84.19,-434.58 0,-158.08 26.25,-302.94 81.47,-434.58 55.22,-131.83 136.89,-252.97 244.61,-358.36 107.92,-102.67 231.58,-181.81 368.28,-234.5 139.22,-52.69 289.33,-78.94 449.75,-78.94 210.39,0 394.53,42 554.94,123.67 160.42,81.67 297.11,202.81 407.56,366.14l-504.97 239.75c-60.47,-81.67 -128.92,-142.33 -202.42,-181.81 -76.22,-39.47 -160.42,-60.67 -252.58,-60.67 -173.64,0 -313.06,57.94 -413,173.83 -99.94,115.89 -149.92,271.25 -149.92,471.53 0,200.28 49.97,360.89 149.92,474.25 99.94,115.89 236.64,173.83 413,173.83 147.19,0 270.86,-36.94 371,-107.92 99.94,-71.17 157.69,-165.86 173.44,-287l-581.2 0 0 -2.52 0.19 0z"></path>
   <path class="fil0" d="M14844.86 1501.5l0 0 0 -358.36 202.42 -0.01 0 50.17 -144.67 0 0 89.64 144.67 0 0 49.97 -144.67 0 0 115.89 144.67 0 0 52.69 -202.42 0.01zm-494.66 0l0 0 0 -358.36 78.94 -0.01c52.5,0 86.72,2.72 107.92,7.97 21,5.25 39.47,13.22 55.22,26.44 21,15.75 36.94,36.94 47.25,60.67 10.5,23.72 15.75,52.69 15.75,84.19 0,31.5 -5.25,60.67 -15.75,84.19 -10.5,23.72 -26.25,44.72 -47.25,60.47 -15.75,13.22 -34.22,21 -55.22,26.44 -21.19,5.25 -52.69,7.97 -94.69,7.97l-15.95 0.03 -76.22 0zm57.94 -52.7l0 0 49.97 0c26.25,0 47.44,-2.72 60.47,-5.25 13.03,-2.53 26.25,-10.5 36.75,-18.47 13.03,-10.5 23.72,-26.44 31.5,-42.19 7.97,-18.47 10.5,-36.94 10.5,-60.67 0,-23.72 -2.53,-42.19 -10.5,-60.67 -7.78,-18.47 -18.47,-31.5 -31.5,-42.19 -10.5,-7.97 -23.72,-15.75 -36.75,-18.47 -13.22,-2.53 -36.94,-5.25 -65.72,-5.25l-21 -0.01 -21.19 0 0 252.97 -2.53 0.01 0 0.19zm-426.03 52.7l0 0 -42.19 -92.17 -144.67 0 -42 92.17 -60.47 0 176.17 -374.11 173.64 374.11 -60.48 0zm-163.14 -142.14l0 0 99.95 0 -36.75 -81.67c-2.53,-5.25 -5.25,-10.5 -7.78,-18.47 -2.72,-7.78 -5.25,-13.22 -7.97,-23.72 -2.53,7.97 -5.25,15.94 -5.25,21 -2.53,7.97 -5.25,13.22 -7.97,18.47l-34.23 84.39zm-426.02 -18.67l0 0 0 160.81 -55.23 0 0 -358.36 81.48 -0.01c23.53,0 42,2.72 55.22,5.25 13.22,2.53 23.72,7.97 34.22,15.75 10.5,7.97 21,21 26.44,34.22 5.25,13.03 7.78,28.97 7.78,44.72 0,28.97 -7.78,49.97 -21,68.64 -13.22,15.75 -34.22,26.25 -63.19,28.97l123.67 163.33 -65.73 0.01 -120.94 -160.61 -2.53 0 0 -2.72 -0.19 0zm5.25 -44.72l0 0 10.5 0c31.5,0 52.5,-2.53 63,-10.5 10.5,-7.97 15.75,-21 15.75,-39.47 0,-18.47 -5.25,-34.22 -15.75,-42.19 -10.5,-7.97 -31.5,-13.03 -60.47,-13.03l-10.51 -0.01 0 105.19 -2.52 0.01zm-557.67 -152.84l0 0 57.75 0 0 218.75c0,31.5 7.78,55.42 23.72,73.69 15.75,15.75 36.75,23.72 68.44,23.72 28.97,0 52.69,-7.78 68.44,-23.72 15.75,-15.75 23.53,-39.47 23.53,-73.69l0 -218.75 57.95 0 0 224c0,47.44 -13.22,84.39 -36.75,107.92 -23.72,23.72 -63.19,36.94 -113.17,36.94 -49.97,0 -86.72,-13.22 -110.44,-36.94 -23.53,-23.72 -36.75,-60.47 -36.75,-107.92l0 -224 -2.72 0zm-260.56 50.17l0 0 0 308.19 -57.75 0.01 0 -308.19 -97.22 -0.01 0 -50.17 249.86 0 0 50.17 -94.89 0zm-378.58 308.2l0 0 0 -358.36 57.75 -0.01 0 358.36 -57.75 0.01zm-392 0l0 0 0 -358.36 202.61 -0.01 0 50.17 -144.67 0 0 89.64 144.67 0 0 49.97 -144.67 0 0 115.89 144.67 0 0 52.69 -202.61 0.01zm-386.56 0l0 0 0 -358.36 202.62 -0.01 0 50.17 -144.67 0 0 89.64 144.67 0 0 49.97 -144.67 0 0 168.58 -57.95 0.01zm-389.27 0l0 0 0 -358.36 202.41 -0.01 0 50.17 -144.66 0 0 89.64 144.66 0 0 49.97 -144.66 0 0 115.89 144.66 0 0 52.69 -202.41 0.01zm-347.28 -160.81l0 0 0 160.81 -55.42 0 0 -358.36 81.67 -0.01c23.72,0 42,2.72 55.22,5.25 13.22,2.53 23.53,7.97 34.22,15.75 10.5,7.97 21,21 26.25,34.22 5.25,13.03 7.97,28.97 7.97,44.72 0,28.97 -7.97,49.97 -21,68.64 -13.22,15.75 -34.22,26.25 -63.19,28.97l123.67 163.33 -65.72 0.01 -120.94 -160.61 -2.54 0 0 -2.72 -0.19 0zm2.72 -44.72l0 0 10.5 0c31.5,0 52.69,-2.53 63.19,-10.5 10.5,-7.97 15.75,-21 15.75,-39.47 0,-18.47 -5.25,-34.22 -15.75,-42.19 -10.5,-7.97 -31.5,-13.03 -60.67,-13.03l-10.49 -0.01 0 105.19 -2.53 0.01zm-392 44.72l0 0 0 160.81 -55.22 0 0 -358.36 89.44 -0.01c26.25,0 44.72,2.72 57.75,5.25 13.22,2.53 23.53,7.97 31.5,13.22 10.5,7.97 21,18.47 26.25,34.22 5.25,13.22 10.5,28.97 10.5,47.44 0,15.94 -2.53,31.69 -10.5,47.44 -5.25,13.22 -15.75,26.25 -26.25,34.22 -10.5,5.25 -21,10.5 -31.5,13.22 -13.22,2.53 -31.5,5.25 -57.75,5.25l-10.5 0.02 -23.52 0 0 -2.72 -0.2 0zm2.72 -47.25l15.75 0c31.5,0 55.22,-2.53 65.72,-10.5 10.5,-7.97 15.75,-18.47 15.75,-36.94 0,-18.47 -5.25,-31.69 -18.47,-39.47 -10.5,-7.97 -34.22,-10.69 -63,-10.69l-15.75 -0.01 0 97.61z"></path>
   <path class="fil0" d="M14839.03 1495.86l0 0 0 -358.36 202.61 0 0 49.97 -144.67 0 0 89.64 144.67 0 0 50.17 -144.67 -0.01 0 115.89 144.67 0 0 52.69 -202.61 0.01zm-494.47 0l0 0 0 -358.36 78.75 0c52.69,0 86.92,2.72 107.92,7.97 21,5.25 39.47,13.22 55.22,26.44 21,15.75 36.75,36.94 47.44,60.67 10.5,23.72 15.75,52.69 15.75,84.19 0,31.5 -5.25,60.67 -15.75,84.19 -10.5,23.72 -26.44,44.72 -47.44,60.67 -15.75,13.22 -34.22,21 -55.22,26.44 -21,5.25 -52.69,7.97 -94.69,7.97l-15.76 0.01 -76.22 0 0 -0.19zm57.94 -52.7l0 0 49.97 0c26.25,0 47.25,-2.53 60.47,-5.25 13.22,-2.72 26.44,-10.5 36.75,-18.47 13.22,-10.5 23.72,-26.44 31.5,-42.19 7.78,-18.47 10.5,-36.94 10.5,-60.67 0,-23.72 -2.53,-42 -10.5,-60.67 -7.97,-18.47 -18.47,-31.5 -31.5,-42.19 -10.5,-7.97 -23.53,-15.75 -36.75,-18.47 -13.22,-2.53 -36.75,-5.25 -65.72,-5.25l-21 0 -21 0 0 252.97 -2.72 0 0 0.19zm-426.22 52.7l0 0 -42 -92.17 -144.67 0 -42.19 92.17 -60.47 0 176.17 -374.11 173.64 374.11 -60.48 0zm-163.14 -142.34l0 0 99.94 0 -36.75 -81.67c-2.72,-5.25 -5.25,-10.5 -7.97,-18.47 -2.53,-7.97 -5.25,-13.22 -7.78,-23.72 -2.53,7.97 -5.25,15.75 -5.25,21 -2.53,7.78 -5.25,13.22 -7.78,18.47l-34.41 84.39zm-426.03 -18.47l0 0 0 160.61 -55.22 0 0 -358.36 81.67 0c23.53,0 42,2.72 55.22,5.25 13.22,2.53 23.72,7.97 34.22,15.75 10.5,7.78 21,21 26.25,34.22 5.25,13.03 7.97,28.97 7.97,44.72 0,28.97 -7.97,49.97 -21.19,68.44 -13.03,15.75 -34.03,26.25 -63.19,28.97l123.67 163.33 -65.73 0.02 -120.94 -160.61 -2.53 -0.01 0 -2.33 -0.2 0zm5.25 -44.72l0 0 10.5 0c31.5,0 52.69,-2.72 63.19,-10.69 10.5,-7.97 15.75,-21 15.75,-39.47 0,-18.47 -5.25,-34.22 -15.75,-42.19 -10.5,-7.97 -31.5,-13.03 -60.67,-13.03l-10.49 -0.01 0 105.39 -2.53 0zm-557.66 -152.83l0 0 57.94 0 0 218.56c0,31.69 7.78,55.42 23.53,73.89 15.75,15.75 36.94,23.72 68.44,23.72 28.78,0 52.5,-7.97 68.44,-23.72 15.75,-15.75 23.72,-39.47 23.72,-73.89l0 -218.56 57.76 0 0 223.81c0,47.44 -13.22,84.19 -36.94,107.92 -23.53,23.72 -63,36.94 -112.97,36.94 -49.97,0 -86.92,-13.03 -110.44,-36.94 -23.72,-23.72 -36.75,-60.47 -36.75,-107.92l0 -223.81 -2.73 0zm-260.37 49.97l0 0 0 308.19 -57.75 0 0 -308.19 -97.41 0 0 -49.97 249.86 0 0 49.97 -94.7 0zm-378.77 308.39l0 0 0 -358.36 57.94 0 0 358.36 -57.94 0zm-391.81 0l0 0 0 -358.36 202.61 0 0 49.97 -144.66 0 0 89.64 144.66 0 0 50.17 -144.66 -0.01 0 115.89 144.66 0 0 52.69 -202.61 0.01zm-386.75 0l0 0 0 -358.36 202.61 0 0 49.97 -144.66 0 0 89.64 144.66 0 0 50.17 -144.66 -0.01 0 168.58 -57.95 0.01zm-389.28 0l0 0 0 -358.36 202.61 0 0 49.97 -144.66 0 0 89.64 144.66 0 0 50.17 -144.66 -0.01 0 115.89 144.66 0 0 52.69 -202.61 0.01zm-347.08 -160.81l0 0 0 160.61 -55.22 0 0 -358.36 81.66 0c23.72,0 42,2.72 55.22,5.25 13.03,2.53 23.53,7.97 34.22,15.75 10.5,7.78 21,21 26.25,34.22 5.25,13.03 7.78,28.97 7.78,44.72 0,28.97 -7.78,49.97 -21,68.44 -13.03,15.75 -34.22,26.25 -63,28.97l123.67 163.33 -65.72 0.02 -120.94 -160.61 -2.53 -0.01 0 -2.33 -0.39 0zm2.53 -44.72l0 0 10.5 0c31.5,0 52.69,-2.72 63.19,-10.69 10.5,-7.97 15.75,-21 15.75,-39.47 0,-18.47 -5.25,-34.22 -15.75,-42.19 -10.5,-7.97 -31.5,-13.03 -60.47,-13.03l-10.5 -0.01 0 105.39 -2.72 0zm-392 44.72l0 0 0 160.61 -55.22 0 0 -358.36 89.44 0c26.44,0 44.72,2.72 57.75,5.25 13.22,2.53 23.72,7.97 31.5,13.22 10.5,7.78 21,18.47 26.44,34.22 5.25,13.22 10.5,28.97 10.5,47.44 0,15.75 -2.72,31.5 -10.5,47.44 -5.25,13.22 -15.75,26.25 -26.44,34.22 -10.5,5.25 -21,10.69 -31.5,13.22 -13.03,2.72 -31.5,5.25 -57.75,5.25l-10.5 0.02 -23.72 0 0 -2.53zm2.72 -47.44l15.75 0c31.5,0 55.22,-2.53 65.72,-10.5 10.5,-7.97 15.75,-18.47 15.75,-36.94 0,-18.47 -5.25,-31.69 -18.47,-39.47 -10.5,-7.97 -34.22,-10.69 -63.19,-10.69l-15.75 -0.01 0 97.61 0.19 0z"></path>
   <g>
    <path class="fil0" d="M15028.81 4380.64l0 0c0,47.44 -10.5,94.69 -28.97,136.89 -18.47,42.19 -47.25,81.67 -81.47,115.89 -36.75,34.22 -76.22,60.67 -123.67,79.14 -44.72,18.47 -91.97,26.25 -144.67,26.25 -52.5,0 -99.94,-7.97 -144.67,-26.25 -44.72,-18.47 -86.92,-44.72 -120.94,-79.14 -36.94,-34.22 -63.19,-71.17 -81.67,-115.89 -18.47,-44.72 -28.78,-89.64 -28.78,-139.61 0,-49.97 10.5,-94.69 28.78,-139.61 18.47,-42.19 44.72,-81.67 81.67,-115.89 34.22,-34.22 76.22,-60.67 120.94,-76.42 44.72,-18.47 94.69,-26.25 147.19,-26.25 52.69,0 99.94,7.97 144.67,26.25 44.72,18.47 84.19,42.19 120.94,76.42 36.75,34.22 63,73.69 84.19,118.42 15.96,44.92 26.46,92.36 26.46,139.8l0 0zm-236.64 0l0 0c0,-49.97 -13.22,-89.64 -36.94,-118.61 -26.44,-28.97 -60.47,-42 -102.67,-42 -44.72,0 -78.94,13.03 -102.67,42 -26.25,28.97 -36.75,68.44 -36.75,118.61 0,49.97 13.22,89.64 36.75,118.61 23.72,28.97 60.67,42.19 102.67,42.19 44.72,0 78.94,-13.22 102.67,-42.19 23.72,-28.97 36.94,-68.63 36.94,-118.61zm-1372.97 334.45l0 0 0 -669.08 218.36 0 0 134.36c31.5,-55.22 68.44,-94.69 110.44,-118.42 42.19,-26.44 92.17,-36.94 149.92,-36.94 44.72,0 81.47,7.97 115.69,21 34.22,13.22 63.19,34.22 84.19,60.67 18.47,21 31.5,49.97 36.75,81.67 7.97,31.5 10.5,81.67 10.5,145.06l0 381.89 -239.55 -0.02 0 -358.17c0,-52.69 -7.78,-92.36 -26.25,-115.89 -18.47,-23.72 -44.72,-36.94 -84.19,-36.94 -49.97,0 -86.72,18.47 -107.92,55.42 -23.53,36.94 -34.22,94.69 -34.22,176.36l0 279.22 -233.72 0 0 -0.19zm-178.89 -669.08l0 0 0 669.08 -218.36 0 0 -107.92c-31.5,47.44 -65.72,78.94 -105.19,102.67 -39.47,21 -84.19,31.5 -136.89,31.5 -89.44,0 -163.14,-31.5 -215.64,-97.42 -52.69,-65.92 -81.47,-152.83 -81.47,-260.75 0,-107.92 28.78,-194.83 84.19,-260.75 55.22,-63.19 131.44,-97.42 226.14,-97.42 49.97,0 94.69,10.5 131.64,31.69 36.75,21.19 68.25,55.22 94.69,100.14l0 -110.64 220.89 0.01 0 -0.19zm-210.39 334.63l0 0c0,-52.69 -13.03,-92.17 -42,-123.86 -28.97,-31.69 -65.72,-44.72 -115.69,-44.72 -47.44,0 -86.72,15.94 -115.89,44.72 -28.97,28.97 -42,71.17 -42,123.86 0,52.69 13.03,92.17 42,123.86 28.97,28.97 65.72,44.72 113.17,44.72 47.44,0 86.72,-15.75 115.69,-44.72 31.5,-31.69 44.72,-73.88 44.72,-123.86zm-933.72 334.45l0 0 0 -669.08 239.36 0 0 669.08 -239.36 0zm-13.23 -877.14l0 0c0,-36.94 13.03,-65.92 39.47,-92.17 26.25,-26.44 55.22,-36.94 91.97,-36.94 36.75,0 68.44,13.03 94.69,36.94 26.44,23.72 36.75,55.22 36.75,92.17 0,36.94 -13.22,68.44 -39.47,92.17 -26.25,26.44 -57.75,39.47 -92.17,39.47 -36.75,0 -65.72,-13.03 -91.97,-39.47 -26.04,-26.25 -39.27,-57.95 -39.27,-92.17zm-141.94 426.81l0 0c-23.72,-21 -44.72,-34.22 -65.72,-44.72 -21,-10.69 -44.72,-13.22 -68.44,-13.22 -47.44,0 -84.19,15.75 -113.17,47.44 -28.97,31.5 -42.19,73.69 -42.19,126.39 0,49.97 15.75,92.17 44.72,123.86 28.97,31.5 68.44,44.72 115.69,44.72 23.72,0 47.44,-5.25 68.44,-13.22 21,-10.5 42.19,-23.72 60.47,-44.72l0 205.53c-28.97,15.75 -57.94,26.25 -86.72,34.22 -28.97,7.97 -57.94,10.5 -89.44,10.5 -102.67,0 -186.86,-34.22 -252.58,-100.14 -65.72,-65.72 -97.42,-152.83 -97.42,-260.75 0,-105.39 31.5,-189.58 97.42,-255.5 65.72,-65.92 149.92,-100.14 252.58,-100.14 34.22,0 65.72,2.53 91.97,10.5 26.25,5.25 52.69,18.47 78.94,31.69l0 197.56 5.45 0zm-1378.22 450.33l0 0 0 -669.08 218.36 0 0 134.36c31.5,-55.22 68.44,-94.69 110.44,-118.42 42,-26.44 91.97,-36.94 149.92,-36.94 44.72,0 81.67,7.97 115.69,21 34.22,13.22 63,34.22 84.19,60.67 18.47,21 31.5,49.97 36.75,81.67 7.97,31.5 10.5,81.67 10.5,145.06l0 381.89 -239.35 -0.02 0 -358.17c0,-52.69 -7.97,-92.36 -26.44,-115.89 -18.47,-23.72 -44.72,-36.94 -84,-36.94 -49.97,0 -86.92,18.47 -107.92,55.42 -23.72,36.94 -34.22,94.69 -34.22,176.36l0 279.22 -233.92 0 0 -0.19zm-136.89 -334.45l0 0c0,47.44 -10.5,94.69 -28.97,136.89 -18.47,42.19 -47.25,81.67 -81.47,115.89 -36.75,34.22 -76.22,60.67 -123.67,79.14 -44.72,18.47 -91.97,26.25 -144.67,26.25 -52.5,0 -99.94,-7.97 -144.67,-26.25 -44.72,-18.47 -86.92,-44.72 -120.94,-79.14 -36.94,-34.22 -63.19,-71.17 -81.67,-115.89 -18.47,-44.72 -28.78,-89.64 -28.78,-139.61 0,-49.97 10.5,-94.69 28.78,-139.61 18.47,-42.19 44.72,-81.67 81.67,-115.89 34.22,-34.22 76.22,-60.67 120.94,-76.42 44.72,-18.47 94.69,-26.25 147.19,-26.25 52.69,0 99.94,7.97 144.67,26.25 44.72,18.47 84.19,42.19 120.94,76.42 36.75,34.22 63,73.69 84.19,118.42 18.68,44.92 26.46,92.36 26.46,139.8zm-236.64 0l0 0c0,-49.97 -13.22,-89.64 -36.94,-118.61 -26.44,-28.97 -60.47,-42 -102.67,-42 -44.72,0 -78.94,13.03 -102.67,42 -26.25,28.97 -36.75,68.44 -36.75,118.61 0,49.97 13.22,89.64 36.75,118.61 23.72,28.97 60.67,42.19 102.67,42.19 44.72,0 78.94,-13.22 102.67,-42.19 26.24,-28.97 36.94,-68.63 36.94,-118.61zm-1054.86 -200.27l0 0 49.97 0c63,0 107.92,-7.97 133.97,-26.25 26.44,-18.47 36.94,-47.44 36.94,-89.64 0,-39.47 -13.22,-68.44 -36.94,-86.92 -23.53,-18.47 -68.44,-26.25 -131.44,-26.25l-52.7 0 0 229.06 0.2 0zm0 534.72l0 0 -249.86 0 0 -969.31 278.64 0c107.92,0 186.86,5.25 228.86,15.75 44.72,10.5 81.67,28.97 113.17,55.22 36.75,28.97 63,65.92 81.47,110.64 18.47,44.72 28.97,94.69 28.97,147.39 0,57.94 -10.5,108.11 -28.97,152.83 -18.47,44.72 -47.44,78.94 -81.47,107.92 -26.44,21 -60.47,36.94 -97.42,44.72 -36.75,10.5 -97.22,13.22 -178.89,13.22l-44.72 0.01 -47.45 0 0 321.22 -2.33 0 0 0.39zm-831.25 -334.45l0 0c0,47.44 -10.5,94.69 -28.78,136.89 -18.47,42.19 -47.44,81.67 -81.67,115.89 -36.75,34.22 -76.22,60.67 -123.67,79.14 -44.72,18.47 -91.97,26.25 -144.67,26.25 -52.69,0 -99.94,-7.97 -144.67,-26.25 -44.72,-18.47 -86.92,-44.72 -120.94,-79.14 -36.94,-34.22 -63.19,-71.17 -81.47,-115.89 -18.47,-44.72 -28.97,-89.64 -28.97,-139.61 0,-49.97 10.5,-94.69 28.97,-139.61 18.47,-42.19 44.72,-81.67 81.47,-115.89 34.22,-34.22 76.42,-60.67 120.94,-76.42 44.72,-18.47 94.69,-26.25 147.19,-26.25 52.69,0 99.94,7.97 144.86,26.25 44.72,18.47 84,42.19 120.94,76.42 36.75,34.22 63.19,73.69 84.19,118.42 15.78,44.92 26.28,92.36 26.28,139.8zm-236.64 0l0 0c0,-49.97 -13.22,-89.64 -36.75,-118.61 -26.25,-28.97 -60.47,-42 -102.67,-42 -44.72,0 -78.94,13.03 -102.47,42 -26.44,28.97 -36.75,68.44 -36.75,118.61 0,49.97 13.03,89.64 36.75,118.61 23.72,28.97 60.47,42.19 102.47,42.19 44.72,0 78.94,-13.22 102.67,-42.19 23.53,-28.97 36.75,-68.63 36.75,-118.61zm-657.42 -692.8l0 0 0 1027.25 -218.36 0 0 -107.92c-31.5,44.72 -63,78.94 -102.47,100.14 -36.75,21 -78.94,34.22 -126.19,34.22 -94.69,0 -170.92,-31.5 -226.33,-97.42 -55.22,-65.92 -84.19,-152.83 -84.19,-263.47 0,-105.39 28.97,-192.31 84.19,-258.22 55.22,-65.92 128.92,-97.42 218.36,-97.42 57.75,0 102.67,10.5 139.42,31.69 36.75,21.19 68.44,55.22 94.69,102.67 -2.53,-15.75 -5.25,-34.22 -5.25,-55.22 -2.53,-21.19 -2.53,-42.19 -2.53,-65.92l0 -350.19 228.66 0 0 -0.19zm-210.58 692.8c0,-52.69 -13.22,-92.17 -42.19,-123.86 -26.25,-28.97 -65.72,-44.72 -113.17,-44.72 -47.44,0 -86.72,15.94 -112.97,44.72 -26.44,28.97 -42.19,71.17 -42.19,123.86 0,52.69 13.22,94.69 42.19,123.86 26.25,28.97 65.72,44.72 112.97,44.72 47.44,0 86.92,-15.75 113.17,-44.72 29.16,-31.69 42.19,-71.16 42.19,-123.86z"></path>
   </g>
   <g>
    <path class="fil0" d="M15023.17 4375.01l0 0c0,47.44 -10.5,94.89 -28.97,136.89 -18.47,42.19 -47.44,81.67 -81.67,115.89 -36.75,34.22 -76.22,60.47 -123.67,78.94 -44.72,18.47 -91.97,26.44 -144.67,26.44 -52.69,0 -99.94,-7.97 -144.67,-26.44 -44.72,-18.47 -86.92,-44.72 -120.94,-78.94 -36.75,-34.22 -63.19,-71.17 -81.67,-115.89 -18.47,-44.72 -28.97,-89.64 -28.97,-139.61 0,-49.97 10.5,-94.89 28.97,-139.61 18.47,-42.19 44.72,-81.67 81.67,-115.89 34.03,-34.22 76.22,-60.47 120.94,-76.42 44.72,-18.47 94.69,-26.44 147.39,-26.44 52.5,0 99.94,7.97 144.67,26.44 44.72,18.47 84.19,42 120.94,76.42 36.75,34.22 63.19,73.69 84.19,118.42 15.96,44.91 26.46,92.35 26.46,139.8l0 0zm-236.84 0l0 0c0,-50.17 -13.03,-89.64 -36.75,-118.61 -26.25,-28.97 -60.47,-42 -102.47,-42 -44.72,0 -78.94,13.03 -102.67,42 -26.44,28.97 -36.75,68.44 -36.75,118.61 0,50.17 13.22,89.64 36.75,118.61 23.72,28.97 60.47,42 102.67,42 44.72,0 78.94,-13.03 102.47,-42 23.73,-29.17 36.75,-68.64 36.75,-118.61zm-1372.97 334.44l0 0 0 -668.89 218.36 0 0 134.17c31.5,-55.22 68.44,-94.69 110.44,-118.42 42,-26.44 91.97,-36.94 149.92,-36.94 44.72,0 81.67,7.97 115.89,21 34.22,13.03 63,34.22 84.19,60.47 18.47,21 31.5,49.97 36.94,81.47 7.78,31.69 10.5,81.67 10.5,145.06l0 381.89 -239.35 0 0 -357.98c0,-52.69 -7.97,-92.17 -26.44,-115.89 -18.47,-23.72 -44.72,-36.75 -84,-36.75 -49.97,0 -86.72,18.47 -107.92,55.22 -23.72,36.94 -34.22,94.69 -34.22,176.56l0 279.22 -234.31 0 0 -0.19zm-178.69 -669.08l0 0 0 668.89 -218.36 0 0 -107.92c-31.5,47.44 -65.72,79.14 -105.19,102.67 -39.47,21 -84.19,31.5 -136.89,31.5 -89.44,0 -163.14,-31.5 -215.64,-97.42 -52.69,-65.92 -81.67,-152.83 -81.67,-260.75 0,-107.92 28.97,-195.03 84.19,-260.75 55.22,-63.19 131.44,-97.42 226.33,-97.42 49.97,0 94.69,10.5 131.44,31.5 36.94,21.19 68.44,55.22 94.69,100.14l0 -110.64 221.1 0 0 0.2zm-210.59 334.64l0 0c0,-52.69 -13.22,-92.17 -42,-123.67 -28.97,-31.69 -65.72,-44.72 -115.69,-44.72 -47.44,0 -86.92,15.75 -115.69,44.72 -28.97,28.97 -42.19,71.17 -42.19,123.67 0,52.69 13.22,92.17 42.19,123.67 28.78,28.97 65.72,44.72 113.17,44.72 47.44,0 86.72,-15.75 115.69,-44.72 31.3,-31.7 44.52,-73.7 44.52,-123.67zm-933.72 334.44l0 0 0 -668.89 239.36 0 0 668.89 -239.36 0zm-13.03 -877.14l0 0c0,-36.94 13.22,-65.92 39.47,-92.17 26.25,-26.44 55.22,-36.94 91.97,-36.94 36.75,0 68.44,13.22 94.69,36.94 26.25,23.72 36.75,55.22 36.75,92.17 0,36.94 -13.22,68.44 -39.47,92.17 -26.44,26.44 -57.94,39.47 -92.17,39.47 -36.94,0 -65.72,-13.03 -91.97,-39.47 -26.24,-26.25 -39.27,-57.95 -39.27,-92.17zm-142.13 426.81l0 0c-23.72,-21 -44.72,-34.22 -65.72,-44.72 -21,-10.5 -44.72,-13.22 -68.25,-13.22 -47.44,0 -84.19,15.75 -113.17,47.44 -28.78,31.69 -42,73.69 -42,126.39 0,50.17 15.75,92.17 44.72,123.67 28.78,31.69 68.25,44.72 115.69,44.72 23.72,0 47.44,-5.25 68.44,-13.03 21,-10.69 42,-23.72 60.47,-44.72l0 205.53c-28.78,15.75 -57.75,26.25 -86.92,34.22 -28.78,7.97 -57.75,10.69 -89.44,10.69 -102.47,0 -186.67,-34.22 -252.39,-100.14 -65.72,-65.92 -97.22,-152.83 -97.22,-260.75 0,-105.39 31.5,-189.58 97.22,-255.5 65.72,-65.92 149.92,-100.14 252.39,-100.14 34.22,0 65.72,2.53 91.97,10.5 26.44,5.25 52.69,18.47 78.94,31.69l0 197.56 5.27 0 0 -0.19zm-1378.23 450.33l0 0 0 -668.89 218.36 0 0 134.17c31.5,-55.22 68.44,-94.69 110.64,-118.42 42,-26.44 91.97,-36.94 149.92,-36.94 44.72,0 81.47,7.97 115.69,21 34.22,13.03 63.19,34.22 84.19,60.47 18.47,21 31.5,49.97 36.75,81.47 7.97,31.69 10.5,81.67 10.5,145.06l0 381.89 -239.35 0 0 -357.98c0,-52.69 -7.78,-92.17 -26.25,-115.89 -18.47,-23.72 -44.72,-36.75 -84.19,-36.75 -49.97,0 -86.72,18.47 -107.92,55.22 -23.72,36.94 -34.22,94.69 -34.22,176.56l0 279.22 -234.12 0 0 -0.19zm-136.69 -334.44l0 0c0,47.44 -10.5,94.89 -28.97,136.89 -18.47,42.19 -47.44,81.67 -81.67,115.89 -36.75,34.22 -76.22,60.47 -123.67,78.94 -44.72,18.47 -91.97,26.44 -144.67,26.44 -52.69,0 -99.94,-7.97 -144.67,-26.44 -44.72,-18.47 -86.72,-44.72 -120.94,-78.94 -36.94,-34.22 -63.19,-71.17 -81.67,-115.89 -18.47,-44.72 -28.97,-89.64 -28.97,-139.61 0,-49.97 10.5,-94.89 28.97,-139.61 18.47,-42.19 44.72,-81.67 81.67,-115.89 34.03,-34.22 76.22,-60.47 120.94,-76.42 44.72,-18.47 94.69,-26.44 147.39,-26.44 52.5,0 99.94,7.97 144.67,26.44 44.72,18.47 84.19,42 120.94,76.42 36.75,34.22 63.19,73.69 84.19,118.42 18.49,44.91 26.46,92.35 26.46,139.8zm-236.83 0l0 0c0,-50.17 -13.03,-89.64 -36.75,-118.61 -26.25,-28.97 -60.47,-42 -102.47,-42 -44.72,0 -78.94,13.03 -102.67,42 -26.44,28.97 -36.75,68.44 -36.75,118.61 0,50.17 13.03,89.64 36.75,118.61 23.72,28.97 60.47,42 102.67,42 44.72,0 78.94,-13.03 102.47,-42 26.25,-29.17 36.75,-68.64 36.75,-118.61zm-1054.87 -200.28l0 0 49.98 0c63.19,0 107.92,-7.97 134.17,-26.25 26.25,-18.47 36.75,-47.44 36.75,-89.64 0,-39.47 -13.22,-68.44 -36.75,-86.92 -23.72,-18.47 -68.44,-26.25 -131.64,-26.25l-52.7 0 0 229.06 0.19 0zm0 534.72l0 0 -249.86 0 0 -969.31 278.84 0c107.92,0 186.67,5.25 228.86,15.75 44.72,10.5 81.47,28.97 112.97,55.22 36.94,28.97 63.19,65.92 81.67,110.64 18.47,44.72 28.78,94.69 28.78,147.39 0,57.94 -10.5,108.11 -28.78,152.83 -18.47,44.72 -47.44,78.94 -81.67,107.92 -26.25,21 -60.47,36.94 -97.22,44.72 -36.94,10.5 -97.42,13.22 -178.89,13.22l-44.72 0.01 -47.25 0 0 321.22 -2.73 0 0 0.39zm-831.05 -334.44l0 0c0,47.44 -10.5,94.89 -28.97,136.89 -18.47,42.19 -47.25,81.67 -81.47,115.89 -36.75,34.22 -76.22,60.47 -123.67,78.94 -44.72,18.47 -91.97,26.44 -144.67,26.44 -52.69,0 -99.94,-7.97 -144.67,-26.44 -44.72,-18.47 -86.92,-44.72 -120.94,-78.94 -36.75,-34.22 -63,-71.17 -81.67,-115.89 -18.47,-44.72 -28.78,-89.64 -28.78,-139.61 0,-49.97 10.5,-94.89 28.78,-139.61 18.47,-42.19 44.72,-81.67 81.67,-115.89 34.22,-34.22 76.22,-60.47 120.94,-76.42 44.72,-18.47 94.69,-26.44 147.19,-26.44 52.69,0 99.94,7.97 144.67,26.44 44.72,18.47 84.19,42 120.94,76.42 36.75,34.22 63,73.69 84.19,118.42 15.96,44.91 26.46,92.35 26.46,139.8zm-236.64 0l0 0c0,-50.17 -13.22,-89.64 -36.75,-118.61 -26.44,-28.97 -60.67,-42 -102.67,-42 -44.72,0 -78.94,13.03 -102.67,42 -26.25,28.97 -36.94,68.44 -36.94,118.61 0,50.17 13.22,89.64 36.94,118.61 23.72,28.97 60.47,42 102.67,42 44.72,0 78.94,-13.03 102.67,-42 23.53,-29.17 36.75,-68.64 36.75,-118.61zm-657.61 -692.81l0 0 0 1027.25 -218.36 0 0 -107.92c-31.5,44.72 -63.19,79.14 -102.47,100.14 -36.94,21 -78.94,34.22 -126.19,34.22 -94.69,0 -170.92,-31.5 -226.33,-97.42 -55.22,-65.92 -84,-152.83 -84,-263.47 0,-105.39 28.78,-192.31 84,-258.22 55.42,-65.92 128.92,-97.42 218.36,-97.42 57.75,0 102.47,10.5 139.22,31.5 36.94,21.19 68.44,55.22 94.69,102.86 -2.53,-15.75 -5.25,-34.22 -5.25,-55.42 -2.53,-21 -2.53,-42 -2.53,-65.72l0 -350.39 228.86 0.01zm-210.39 692.81c0,-52.69 -13.03,-92.17 -42,-123.67 -26.25,-28.97 -65.72,-44.72 -113.17,-44.72 -47.44,0 -86.72,15.75 -113.17,44.72 -26.25,28.97 -42,71.17 -42,123.67 0,52.69 13.22,94.89 42,123.67 26.44,28.97 65.72,44.72 113.17,44.72 47.25,0 86.92,-15.75 113.17,-44.72 28.78,-31.7 42,-71.17 42,-123.67z"></path>
   </g>
   <path class="fil1" d="M15023.36 5676.23l-251.22 0c0.19,25.47 6.81,45.31 19.64,59.11 13.03,13.81 31.11,20.81 54.83,20.81 17.69,0 32.47,-3.31 44.72,-9.92 12.25,-6.81 21.39,-16.53 27.81,-29.75l87.5 35.39c-10.5,25.47 -28.97,44.92 -55.61,58.72 -26.64,13.81 -59.11,20.61 -97.81,20.61 -57.75,0 -103.83,-15.94 -138.64,-48.03 -34.81,-32.08 -52.31,-74.28 -52.31,-126.78 0,-51.33 17.31,-94.31 52.11,-128.33 34.81,-34.22 78.94,-51.14 132.03,-51.14 54.64,0 98,17.31 129.5,51.72 31.5,34.61 47.44,81.86 47.44,141.94l0.01 5.65zm-114.53 -65.72c-2.33,-18.67 -9.33,-33.83 -21.39,-45.31 -12.06,-11.47 -27.03,-17.11 -44.72,-17.11 -19.06,0 -34.22,5.25 -45.5,15.56 -11.08,10.31 -18.67,26.06 -22.36,46.86l133.97 0zm-433.41 354.27l0 -477.17 116.47 0.01 0 477.17 -116.47 -0.01zm-6.03 -580.61c0,-17.5 6.22,-32.67 18.86,-44.92 12.44,-12.44 27.42,-18.67 45.31,-18.67 18.28,0 33.64,6.03 45.89,18.28 12.44,12.25 18.47,27.22 18.47,45.31 0,18.08 -6.22,33.44 -18.86,46.08 -12.44,12.64 -27.81,19.06 -45.5,19.06 -17.5,0 -32.67,-6.61 -45.31,-19.44 -12.44,-12.64 -18.86,-27.81 -18.86,-45.7zm-64.56 269.7c0,23.72 -4.67,46.47 -14,67.86 -9.14,21.58 -22.56,40.64 -40.44,57.75 -17.69,17.11 -37.92,29.94 -59.89,38.69 -22.17,8.75 -45.69,13.03 -70.58,13.03 -25.28,0 -49,-4.28 -71.17,-13.03 -22.36,-8.75 -42,-21.58 -59.5,-38.69 -17.5,-16.53 -30.72,-35.58 -40.06,-57.17 -9.14,-21.58 -13.81,-44.33 -13.81,-68.44 0,-24.31 4.47,-47.06 13.61,-68.44 9.14,-21.19 22.36,-40.64 40.06,-57.75 17.11,-16.72 36.75,-29.36 59.11,-38.11 21.97,-8.56 45.89,-12.83 71.56,-12.83 25.67,0 49.39,4.28 71.36,12.83 21.97,8.56 41.81,21.19 59.11,38.11 18.08,17.31 31.5,36.75 40.64,58.14 9.53,21.19 14,44.13 14,68.05zm-115.88 0c0,-24.5 -6.22,-44.14 -18.67,-58.14 -12.44,-14.39 -29.36,-21.39 -50.36,-21.39 -21.39,0 -38.11,7 -50.56,21.39 -12.25,14.19 -18.47,33.64 -18.47,58.14 0,24.69 6.22,44.14 18.28,58.33 12.25,14 29.17,21.19 50.75,21.19 21.39,0 38.11,-7.19 50.56,-21.19 12.44,-14.19 18.47,-33.64 18.47,-58.33zm-671.81 164.69l0 -508.08 114.53 0 0 178.31c0,11.86 -0.39,22.75 -0.97,32.86 -0.78,10.11 -1.56,19.06 -2.92,27.22 14.58,-24.69 31.89,-42.78 51.72,-54.44 19.83,-11.47 43.56,-17.31 70.78,-17.31 21.39,0 40.44,3.5 57.17,10.31 16.53,6.81 30.14,16.72 40.64,29.75 8.94,11.08 14.97,24.5 18.86,40.44 3.69,15.94 5.64,39.86 5.64,71.56l0 189.39 -116.67 -0.01 0 -177.33c0,-26.44 -4.28,-45.5 -13.03,-57.75 -8.56,-11.86 -22.36,-17.89 -41.42,-17.89 -24.11,0 -42,8.94 -53.08,26.83 -11.08,17.89 -16.53,47.06 -16.53,87.31l0 138.83 -114.72 0zm-276.89 -164.69c0,23.72 -4.67,46.47 -14,67.86 -9.14,21.58 -22.56,40.64 -40.44,57.75 -17.69,17.11 -37.72,29.94 -59.89,38.69 -22.17,8.75 -45.5,13.03 -70.58,13.03 -25.47,0 -49,-4.28 -71.17,-13.03 -22.36,-8.75 -42,-21.58 -59.5,-38.69 -17.5,-16.53 -30.72,-35.58 -39.86,-57.17 -9.14,-21.58 -13.81,-44.33 -13.81,-68.44 0,-24.31 4.47,-47.06 13.61,-68.44 9.14,-21.19 22.17,-40.64 40.06,-57.75 17.11,-16.72 36.94,-29.36 58.92,-38.11 22.17,-8.56 46.08,-12.83 71.56,-12.83 25.67,0 49.39,4.28 71.36,12.83 21.97,8.56 41.81,21.19 59.11,38.11 17.89,17.31 31.69,36.75 40.64,58.14 9.52,21.19 13.99,44.13 13.99,68.05zm-115.89 0c0,-24.5 -6.22,-44.14 -18.86,-58.14 -12.25,-14.39 -29.17,-21.39 -50.17,-21.39 -21.39,0 -38.31,7 -50.75,21.39 -12.25,14.19 -18.47,33.64 -18.47,58.14 0,24.69 6.22,44.14 18.28,58.33 12.25,14 29.17,21.19 50.75,21.19 21.19,0 38.31,-7.19 50.56,-21.19 12.44,-14.19 18.66,-33.64 18.66,-58.33zm-533.36 164.69l0 -330.75 110.06 0 0 77.78c11.47,-28.39 26.83,-49.58 46.47,-63.97 19.83,-14.19 43.36,-21.39 71.36,-21.39 4.67,0 9.33,0.19 14,0.39 4.67,0.39 9.33,0.78 14.19,1.56l-11.28 105.97c-7,-2.33 -13.81,-4.08 -20.61,-5.25 -6.81,-0.97 -13.22,-1.56 -19.64,-1.56 -28.19,0 -49.97,8.75 -65.33,25.86 -15.36,17.31 -22.94,42 -22.94,73.89l0 137.08 -116.28 0 0 0.39zm-84.19 -330.94l0 168.78c0,37.53 -2.92,65.14 -8.94,83.22 -6.03,18.08 -16.14,34.03 -30.14,48.03 -14.78,14.58 -32.86,25.67 -54.64,32.86 -21.97,7.39 -47.44,10.89 -77,10.89 -29.36,0 -54.83,-3.5 -76.42,-10.89 -21.78,-7.19 -40.44,-18.28 -55.61,-32.86 -14.19,-13.42 -24.31,-29.36 -30.14,-47.64 -5.83,-18.28 -8.94,-46.08 -8.94,-83.42l0 -168.78 111.22 0 0 176.56c0,27.61 4.47,47.64 13.61,60.08 9.14,12.25 24.11,18.47 44.72,18.47 20.81,0 35.58,-6.03 44.72,-18.28 9.14,-12.25 13.61,-32.28 13.61,-60.28l0 -176.56 113.95 0.01 0 -0.19zm-557.48 330.94l0 -248.31 -49.58 0.01 0 -82.44 49.58 -0.01 0 -98.78 114.53 0 0 98.78 49.59 0 0 82.44 -49.59 0.01 0 248.31 -114.53 -0.01zm-101.69 -330.94l0 168.78c0,37.53 -2.92,65.14 -8.94,83.22 -6.03,18.08 -16.14,34.03 -30.14,48.03 -14.78,14.58 -33.06,25.67 -54.64,32.86 -21.97,7.39 -47.44,10.89 -77,10.89 -29.17,0 -54.64,-3.5 -76.42,-10.89 -21.78,-7.19 -40.25,-18.28 -55.42,-32.86 -14.19,-13.42 -24.31,-29.36 -30.14,-47.64 -5.83,-18.28 -8.94,-46.08 -8.94,-83.42l0 -168.78 111.22 0 0 176.56c0,27.61 4.67,47.64 13.81,60.08 9.14,12.25 23.92,18.47 44.53,18.47 20.81,0 35.58,-6.03 44.72,-18.28 9.14,-12.25 13.61,-32.28 13.61,-60.28l0 -176.56 113.75 0.01 0 -0.19zm-562.92 330.94l0 -248.31 -49.58 0.01 0 -82.44 49.58 -0.01 0 -67.86c0,-38.5 10.5,-67.47 31.31,-86.92 21,-19.44 52.5,-29.17 93.92,-29.17 6.03,0 13.03,0.58 21.19,1.75 8.17,0.97 17.11,2.53 26.25,4.28l0 89.06c-5.25,-1.94 -10.11,-3.5 -14.58,-4.47 -4.67,-0.97 -8.56,-1.56 -12.25,-1.56 -10.89,0 -19.06,3.31 -23.92,9.92 -5.06,6.61 -7.58,17.31 -7.58,32.08l0 52.69 58.33 0.01 0 82.44 -58.33 0 0 248.31 -114.34 0 0 0.19zm-288.16 -164.69c0,23.72 -4.67,46.47 -14,67.86 -9.14,21.58 -22.56,40.64 -40.44,57.75 -17.89,17.11 -37.92,29.94 -59.89,38.69 -22.36,8.75 -45.69,13.03 -70.58,13.03 -25.28,0 -49,-4.28 -71.17,-13.03 -22.36,-8.75 -42,-21.58 -59.5,-38.69 -17.31,-16.53 -30.72,-35.58 -39.86,-57.17 -9.14,-21.58 -13.81,-44.33 -13.81,-68.44 0,-24.31 4.67,-47.06 13.61,-68.44 9.14,-21.19 22.17,-40.64 39.86,-57.75 17.31,-16.72 36.94,-29.36 59.11,-38.11 22.17,-8.56 46.08,-12.83 71.56,-12.83 25.48,0 49.39,4.28 71.36,12.83 21.97,8.56 41.81,21.19 59.11,38.11 17.89,17.31 31.5,36.75 40.64,58.14 9.52,21.19 14,44.13 14,68.05zm-115.89 0c0,-24.5 -6.22,-44.14 -18.67,-58.14 -12.44,-14.39 -29.36,-21.39 -50.36,-21.39 -21.39,0 -38.11,7 -50.56,21.39 -12.25,14.19 -18.47,33.64 -18.47,58.14 0,24.69 6.22,44.14 18.08,58.33 12.25,14 29.17,21.19 50.75,21.19 21.39,0 38.31,-7.19 50.56,-21.19 12.45,-14.19 18.67,-33.64 18.67,-58.33zm-511.2 0c0,23.72 -4.67,46.47 -14,67.86 -9.33,21.58 -22.56,40.64 -40.44,57.75 -17.88,17.11 -37.92,29.94 -60.08,38.69 -22.17,8.75 -45.69,13.03 -70.58,13.03 -25.28,0 -49,-4.28 -70.97,-13.03 -22.36,-8.75 -42,-21.58 -59.5,-38.69 -17.5,-16.53 -30.72,-35.58 -39.86,-57.17 -9.14,-21.58 -13.81,-44.33 -13.81,-68.44 0,-24.31 4.47,-47.06 13.61,-68.44 8.94,-21.19 22.36,-40.64 40.06,-57.75 17.31,-16.72 36.94,-29.36 59.11,-38.11 22.17,-8.56 45.89,-12.83 71.56,-12.83 25.67,0 49.39,4.28 71.36,12.83 22.17,8.56 41.81,21.19 59.31,38.11 17.89,17.31 31.5,36.75 40.64,58.14 8.93,21.19 13.59,44.13 13.59,68.05zm-115.89 0c0,-24.5 -6.42,-44.14 -18.67,-58.14 -12.25,-14.39 -29.17,-21.39 -50.36,-21.39 -21.19,0 -38.11,7 -50.56,21.39 -12.25,14.19 -18.47,33.64 -18.47,58.14 0,24.69 6.22,44.14 18.28,58.33 12.25,14 29.17,21.19 50.75,21.19 21.39,0 38.11,-7.19 50.75,-21.19 12.06,-14.19 18.28,-33.64 18.28,-58.33zm-321.22 -343.39l0 508.08 -107.33 0 0 -53.67c-14.97,22.17 -31.5,38.89 -50.17,49.97 -18.47,11.08 -39.08,16.53 -61.64,16.53 -46.47,0 -83.61,-16.14 -111.03,-48.22 -27.42,-32.08 -41.22,-75.44 -41.22,-129.69 0,-52.69 13.81,-95.28 41.22,-127.75 27.42,-32.47 63,-48.81 106.94,-48.81 28,0 50.75,5.06 68.25,15.17 17.5,10.11 33.25,27.03 46.86,50.75 -1.17,-7.97 -2.14,-16.72 -2.92,-26.83 -0.58,-10.11 -0.97,-20.81 -0.97,-32.28l0 -173.06 112.01 0 0 -0.19zm-103.44 343c0,-25.67 -6.81,-46.08 -20.42,-61.06 -13.42,-14.78 -32.08,-22.17 -55.61,-22.17 -23.33,0 -42,7.39 -55.61,22.17 -13.42,14.97 -20.03,35.39 -20.03,61.06 0,25.86 6.61,46.28 20.03,61.06 13.42,14.78 31.89,22.17 55.61,22.17 23.53,0 42.19,-7.39 55.61,-22.36 13.61,-14.98 20.42,-35.21 20.42,-60.87zm-689.89 165.08l0 -330.75 106.75 0 0 67.08c15.36,-27.03 33.44,-46.67 53.67,-59.31 20.22,-12.44 44.53,-18.67 72.92,-18.67 21.39,0 40.44,3.5 57.17,10.31 16.53,6.81 30.14,16.72 40.64,29.75 8.94,11.08 14.97,24.5 18.67,40.44 3.69,15.94 5.64,39.86 5.64,71.56l0 189.39 -116.49 0.01 0 -177.33c0,-26.44 -4.47,-45.5 -13.03,-57.75 -8.75,-11.86 -22.36,-17.89 -41.42,-17.89 -24.11,0 -41.81,8.94 -52.89,26.83 -11.08,17.89 -16.72,47.06 -16.72,87.31l0 138.83 -114.91 0 0 0.19zm-205.53 0l0 -330.75 116.67 0 0 330.75 -116.67 0zm-6.03 -434.39c0,-17.5 6.22,-32.67 18.86,-44.92 12.44,-12.44 27.42,-18.67 45.31,-18.67 18.28,0 33.44,6.03 45.69,18.28 12.44,12.25 18.67,27.22 18.67,45.31 0,18.08 -6.22,33.44 -19.06,46.08 -12.44,12.64 -27.81,19.06 -45.5,19.06 -17.69,0 -32.67,-6.61 -45.31,-19.44 -12.43,-12.64 -18.66,-27.81 -18.66,-45.7zm-81.08 103.45l0 168.78c0,37.53 -2.92,65.14 -9.14,83.22 -5.83,18.08 -15.94,34.03 -30.33,48.03 -14.58,14.58 -32.86,25.67 -54.64,32.86 -21.78,7.39 -47.44,10.89 -77,10.89 -29.17,0 -54.64,-3.5 -76.42,-10.89 -21.78,-7.19 -40.25,-18.28 -55.61,-32.86 -14.19,-13.42 -24.11,-29.36 -30.14,-47.64 -6.03,-18.28 -8.75,-46.08 -8.75,-83.42l0 -168.78 111.22 0 0 176.56c0,27.61 4.67,47.64 13.81,60.08 9.14,12.25 23.92,18.47 44.53,18.47 20.81,0 35.78,-6.03 44.72,-18.28 8.94,-12.25 13.61,-32.28 13.61,-60.28l0 -176.56 114.14 0.01 0 -0.19zm-637.78 330.94l0 -330.75 110.06 0 0 77.78c11.47,-28.39 26.83,-49.58 46.47,-63.97 19.83,-14.19 43.56,-21.39 71.36,-21.39 4.67,0 9.33,0.19 14,0.39 4.67,0.39 9.53,0.78 14.19,1.56l-11.47 105.97c-7,-2.33 -13.81,-4.08 -20.61,-5.25 -6.81,-0.97 -13.22,-1.56 -19.64,-1.56 -28.19,0 -49.97,8.75 -65.53,25.86 -15.17,17.31 -22.94,42 -22.94,73.89l0 137.08 -115.89 0 0 0.39zm-218.94 0l0 -248.31 -49.59 0.01 0 -82.44 49.59 -0.01 0 -98.78 114.53 0 0 98.78 49.58 0 0 82.44 -49.58 0.01 0 248.31 -114.53 -0.01zm-373.34 -27.61l24.31 -89.25c17.11,14.97 35.78,26.25 56.19,34.42 20.42,7.97 40.83,11.86 61.64,11.86 14.78,0 25.86,-2.33 33.44,-7 7.78,-4.67 11.47,-11.47 11.47,-20.42 0,-14.58 -15.56,-25.67 -46.28,-32.86 -9.92,-2.33 -18.08,-4.28 -24.11,-6.03 -35,-9.72 -60.28,-22.17 -76.03,-37.92 -15.75,-15.56 -23.72,-35.97 -23.72,-60.86 0,-32.08 12.25,-57.75 36.17,-77 24.11,-19.25 56.58,-28.97 97.81,-28.97 21.19,0 42.78,2.53 64.75,7.39 21.97,4.86 44.53,12.44 67.47,22.75l-24.31 80.5c-15.56,-10.5 -31.11,-18.67 -47.06,-24.11 -16.14,-5.44 -31.89,-8.17 -47.83,-8.17 -13.42,0 -23.33,1.94 -30.14,6.22 -6.81,4.08 -10.11,10.11 -10.11,17.89 0,11.86 15.36,21.78 45.89,29.94 7,1.94 12.25,3.31 15.75,4.28 40.25,11.47 68.44,25.08 84.19,40.64 15.75,15.75 23.72,36.75 23.72,63.39 0,33.83 -13.03,61.06 -39.08,81.86 -25.86,21 -60.28,31.31 -103.06,31.31 -28.97,0 -55.81,-3.31 -80.69,-9.92 -25.26,-6.41 -48.6,-16.33 -70.38,-29.94zm-406.58 27.61l0 -330.75 106.75 0 0 67.08c15.56,-27.03 33.25,-46.67 53.67,-59.31 20.22,-12.44 44.53,-18.67 72.72,-18.67 21.39,0 40.44,3.5 56.97,10.31 16.72,6.81 30.33,16.72 40.83,29.75 8.75,11.08 14.97,24.5 18.47,40.44 3.69,15.94 5.64,39.86 5.64,71.56l0 189.39 -116.47 0.01 0 -177.33c0,-26.44 -4.47,-45.5 -13.03,-57.75 -8.56,-11.86 -22.17,-17.89 -41.22,-17.89 -24.11,0 -42,8.94 -53.08,26.83 -11.08,17.89 -16.53,47.06 -16.53,87.31l0 138.83 -114.72 0 0 0.19zm-67.08 -164.69c0,23.72 -4.67,46.47 -14,67.86 -9.14,21.58 -22.56,40.64 -40.44,57.75 -17.69,17.11 -37.92,29.94 -59.89,38.69 -22.17,8.75 -45.69,13.03 -70.58,13.03 -25.28,0 -49,-4.28 -71.17,-13.03 -22.36,-8.75 -42,-21.58 -59.5,-38.69 -17.5,-16.53 -30.72,-35.58 -40.06,-57.17 -9.14,-21.58 -13.81,-44.33 -13.81,-68.44 0,-24.31 4.67,-47.06 13.61,-68.44 9.14,-21.19 22.36,-40.64 40.06,-57.75 17.11,-16.72 36.94,-29.36 59.11,-38.11 21.97,-8.56 45.89,-12.83 71.56,-12.83 25.67,0 49.39,4.28 71.36,12.83 21.97,8.56 41.81,21.19 59.11,38.11 18.08,17.31 31.5,36.75 40.83,58.14 9.34,21.19 13.81,44.13 13.81,68.05zm-115.89 0c0,-24.5 -6.22,-44.14 -18.67,-58.14 -12.44,-14.39 -29.36,-21.39 -50.36,-21.39 -21.39,0 -38.11,7 -50.56,21.39 -12.25,14.19 -18.47,33.64 -18.47,58.14 0,24.69 6.22,44.14 18.28,58.33 12.25,14 29.17,21.19 50.75,21.19 21.39,0 38.31,-7.19 50.56,-21.19 12.25,-14.19 18.47,-33.64 18.47,-58.33zm-306.25 -57.56c-11.28,-10.11 -22.17,-17.31 -32.67,-21.97 -10.5,-4.67 -21.58,-7 -33.06,-7 -23.14,0 -41.61,7.58 -55.22,22.94 -13.61,15.17 -20.42,35.97 -20.42,62.22 0,25.28 7.19,45.5 21.39,60.47 14.19,15.17 33.25,22.75 57.17,22.75 11.86,0 22.94,-2.33 33.25,-7.19 10.5,-4.67 20.22,-12.06 29.56,-21.78l0 101.31c-14,7.78 -27.81,13.61 -41.81,17.31 -14,3.69 -28.39,5.44 -43.17,5.44 -50.94,0 -91.97,-16.33 -123.47,-49 -31.69,-32.67 -47.44,-75.64 -47.44,-128.92 0,-51.72 16.14,-94.11 48.22,-126.97 32.28,-32.86 73.31,-49.39 123.86,-49.39 16.72,0 31.89,1.75 45.5,5.06 13.42,3.31 26.44,8.56 38.11,15.75l0 98.97 0.2 0z"></path>
   <path class="fil1" d="M15017.72 5670.39l-251.22 0c0.19,25.47 6.81,45.31 19.64,59.11 13.03,13.81 31.11,20.81 54.64,20.81 17.89,0 32.67,-3.31 44.72,-9.92 12.25,-6.61 21.39,-16.53 27.81,-29.56l87.69 35.39c-10.5,25.47 -29.17,44.92 -55.61,58.72 -26.64,13.81 -59.31,20.61 -98,20.61 -57.56,0 -103.83,-15.94 -138.44,-47.83 -35,-32.08 -52.31,-74.28 -52.31,-126.78 0,-51.53 17.31,-94.31 52.11,-128.53 34.81,-34.22 78.94,-51.14 131.83,-51.14 54.83,0 98,17.11 129.5,51.72 31.69,34.61 47.44,82.06 47.44,141.94l0.01 5.46 0.19 0zm-114.72 -65.72c-2.14,-18.67 -9.33,-33.83 -21.39,-45.31 -12.06,-11.47 -26.83,-17.11 -44.72,-17.11 -19.06,0 -34.22,5.25 -45.5,15.56 -11.08,10.31 -18.67,26.06 -22.56,46.86l134.17 0zm-433.42 354.47l0 -477.17 116.67 0.01 0 477.17 -116.67 -0.01zm-6.02 -580.61c0,-17.69 6.22,-32.67 18.86,-45.11 12.44,-12.44 27.61,-18.67 45.5,-18.67 18.28,0 33.44,6.03 45.89,18.28 12.44,12.25 18.67,27.22 18.67,45.5 0,18.28 -6.42,33.44 -18.86,46.08 -12.64,12.64 -27.81,19.06 -45.5,19.06 -17.5,0 -32.67,-6.61 -45.31,-19.44 -12.84,-12.84 -19.25,-28 -19.25,-45.7zm-64.36 269.5c0,23.72 -4.67,46.67 -14,67.86 -9.14,21.39 -22.56,40.64 -40.44,57.56 -17.89,17.11 -37.92,29.94 -60.08,38.89 -22.17,8.75 -45.69,13.03 -70.58,13.03 -25.47,0 -49,-4.28 -71.17,-13.03 -22.36,-8.75 -42,-21.78 -59.5,-38.89 -17.5,-16.53 -30.92,-35.58 -39.86,-57.17 -9.14,-21.58 -13.81,-44.53 -13.81,-68.44 0,-24.11 4.47,-46.86 13.61,-68.44 8.94,-21.39 22.17,-40.44 40.06,-57.75 17.31,-16.72 36.94,-29.56 59.11,-38.11 22.17,-8.36 45.89,-12.64 71.56,-12.64 25.47,0 49.39,4.28 71.36,12.64 21.97,8.56 41.61,21.39 59.11,38.11 17.89,17.31 31.5,36.75 40.64,57.94 9.51,21.78 13.99,44.53 13.99,68.44zm-115.89 0c0,-24.5 -6.22,-44.14 -18.67,-58.14 -12.44,-14.19 -29.36,-21.39 -50.36,-21.39 -21.39,0 -38.31,7.19 -50.75,21.39 -12.25,14 -18.47,33.64 -18.47,58.14 0,24.69 6.22,44.33 18.28,58.33 12.25,14 29.17,21 50.75,21 21.19,0 38.11,-7.19 50.56,-21 12.43,-13.99 18.66,-33.63 18.66,-58.33zm-672 164.7l0 -507.89 114.52 0 0 178.31c0,11.67 -0.39,22.75 -0.97,32.67 -0.78,10.11 -1.56,19.25 -2.92,27.22 14.58,-24.69 31.89,-42.78 51.53,-54.44 19.83,-11.47 43.56,-17.31 70.97,-17.31 21.39,0 40.44,3.31 57.17,10.31 16.53,6.81 30.33,16.72 40.64,29.75 8.94,11.08 14.97,24.69 18.67,40.64 3.69,15.94 5.64,39.67 5.64,71.36l0 189.39 -116.48 -0.01 0 -177.14c0,-26.44 -4.47,-45.5 -13.03,-57.75 -8.75,-11.86 -22.36,-17.89 -41.42,-17.89 -24.11,0 -41.81,8.94 -52.89,26.83 -11.08,17.89 -16.72,47.06 -16.72,87.31l0 138.83 -114.71 0 0 -0.19zm-276.7 -164.7c0,23.72 -4.67,46.67 -14,67.86 -9.33,21.39 -22.56,40.64 -40.44,57.56 -17.89,17.11 -37.92,29.94 -60.08,38.89 -22.17,8.75 -45.69,13.03 -70.58,13.03 -25.28,0 -49,-4.28 -70.97,-13.03 -22.36,-8.75 -42,-21.78 -59.5,-38.89 -17.5,-16.53 -30.72,-35.58 -39.86,-57.17 -9.14,-21.58 -13.81,-44.53 -13.81,-68.44 0,-24.11 4.67,-46.86 13.81,-68.44 8.94,-21.39 22.36,-40.44 40.06,-57.75 17.31,-16.72 36.94,-29.56 59.11,-38.11 22.17,-8.36 45.89,-12.64 71.56,-12.64 25.67,0 49.39,4.28 71.36,12.64 21.97,8.56 41.81,21.39 59.31,38.11 17.89,17.31 31.5,36.75 40.64,57.94 8.73,21.78 13.39,44.53 13.39,68.44zm-115.89 0c0,-24.5 -6.42,-44.14 -18.67,-58.14 -12.44,-14.19 -29.17,-21.39 -50.36,-21.39 -21.19,0 -38.11,7.19 -50.56,21.39 -12.25,14 -18.47,33.64 -18.47,58.14 0,24.69 6.03,44.33 18.28,58.33 12.25,14 29.17,21 50.75,21 21.39,0 38.11,-7.19 50.75,-21 12.06,-13.99 18.28,-33.63 18.28,-58.33zm-533.36 164.7l0 -330.75 110.06 0 0 77.97c11.47,-28.58 26.83,-49.78 46.47,-63.97 19.64,-14.19 43.36,-21.39 71.36,-21.39 4.47,0 9.14,0.19 14,0.58 4.67,0.19 9.53,0.78 14,1.56l-11.47 105.97c-7,-2.33 -13.81,-3.89 -20.61,-5.06 -6.81,-0.97 -13.22,-1.56 -19.64,-1.56 -28.19,0 -49.97,8.75 -65.53,26.06 -15.17,17.31 -22.94,42 -22.94,73.69l0 136.89 -115.7 0.01zm-84.19 -330.75l0 168.78c0,37.33 -2.92,65.14 -8.94,83.03 -6.03,18.08 -16.14,34.03 -30.33,48.03 -14.78,14.78 -32.86,25.67 -54.64,32.86 -21.97,7.19 -47.44,10.69 -77,10.69 -29.17,0 -54.64,-3.5 -76.42,-10.69 -21.78,-7.19 -40.25,-18.08 -55.42,-32.86 -14.19,-13.61 -24.31,-29.36 -30.14,-47.64 -5.83,-18.28 -8.75,-46.08 -8.75,-83.42l0 -168.78 111.22 0 0 176.36c0,27.61 4.67,47.64 13.61,60.08 9.14,12.25 24.11,18.47 44.72,18.47 20.61,0 35.78,-6.03 44.53,-18.08 9.14,-12.25 13.61,-32.28 13.61,-60.28l0 -176.36 113.95 0 0 -0.19zm-557.67 330.75l0 -248.31 -49.58 0 0 -82.44 49.58 0 0 -98.58 114.53 -0.01 0 98.58 49.58 0.01 0 82.44 -49.58 0 0 248.31 -114.53 0zm-101.69 -330.75l0 168.78c0,37.33 -3.11,65.14 -9.14,83.03 -5.83,18.08 -16.14,34.03 -30.14,48.03 -14.58,14.78 -32.86,25.67 -54.64,32.86 -21.78,7.19 -47.44,10.69 -77,10.69 -29.17,0 -54.83,-3.5 -76.42,-10.69 -21.78,-7.19 -40.25,-18.08 -55.61,-32.86 -14.19,-13.61 -24.31,-29.36 -30.14,-47.64 -6.03,-18.28 -8.94,-46.08 -8.94,-83.42l0 -168.78 111.22 0 0 176.36c0,27.61 4.47,47.64 13.81,60.08 9.14,12.25 23.92,18.47 44.53,18.47 20.81,0 35.58,-6.03 44.72,-18.08 8.94,-12.25 13.61,-32.28 13.61,-60.28l0 -176.36 114.14 0 0 -0.19zm-562.92 330.75l0 -248.31 -49.58 0 0 -82.44 49.58 0 0 -67.86c0,-38.5 10.5,-67.47 31.31,-86.72 21,-19.64 52.5,-29.17 94.11,-29.17 5.83,0 13.03,0.58 21.19,1.75 8.17,0.97 16.92,2.53 26.25,4.47l0 89.06c-5.06,-1.94 -9.92,-3.69 -14.39,-4.67 -4.67,-0.97 -8.75,-1.56 -12.25,-1.56 -10.89,0 -19.06,3.31 -24.11,9.72 -5.06,6.61 -7.39,17.31 -7.39,32.08l0 52.89 58.14 0.01 0 82.44 -58.14 0 0 248.31 -114.72 0zm-287.97 -164.7c0,23.72 -4.86,46.67 -14,67.86 -9.14,21.39 -22.56,40.64 -40.44,57.56 -17.89,17.11 -37.92,29.94 -60.08,38.89 -22.17,8.75 -45.69,13.03 -70.39,13.03 -25.47,0 -49,-4.28 -71.17,-13.03 -22.36,-8.75 -42.19,-21.78 -59.5,-38.89 -17.5,-16.53 -30.92,-35.58 -40.06,-57.17 -9.14,-21.58 -13.61,-44.53 -13.61,-68.44 0,-24.11 4.47,-46.86 13.42,-68.44 9.14,-21.39 22.36,-40.44 40.06,-57.75 17.11,-16.72 36.94,-29.56 59.11,-38.11 22.17,-8.36 45.89,-12.64 71.56,-12.64 25.47,0 49.39,4.28 71.36,12.64 21.97,8.56 41.61,21.39 59.11,38.11 17.89,17.31 31.5,36.75 40.64,57.94 9.32,21.78 13.99,44.53 13.99,68.44zm-115.89 0c0,-24.5 -6.22,-44.14 -18.86,-58.14 -12.44,-14.19 -29.17,-21.39 -50.17,-21.39 -21.39,0 -38.31,7.19 -50.75,21.39 -12.25,14 -18.47,33.64 -18.47,58.14 0,24.69 6.03,44.33 18.28,58.33 12.25,14 29.17,21 50.75,21 21.19,0 38.11,-7.19 50.56,-21 12.44,-13.99 18.66,-33.63 18.66,-58.33zm-511.39 0c0,23.72 -4.67,46.67 -14,67.86 -9.14,21.39 -22.75,40.64 -40.44,57.56 -17.69,17.11 -37.92,29.94 -59.89,38.89 -22.17,8.75 -45.69,13.03 -70.58,13.03 -25.28,0 -49,-4.28 -71.17,-13.03 -22.36,-8.75 -42,-21.78 -59.5,-38.89 -17.5,-16.53 -30.72,-35.58 -40.06,-57.17 -9.14,-21.58 -13.81,-44.53 -13.81,-68.44 0,-24.11 4.67,-46.86 13.61,-68.44 9.14,-21.39 22.36,-40.44 40.06,-57.75 17.11,-16.72 36.94,-29.56 59.11,-38.11 21.97,-8.36 45.89,-12.64 71.56,-12.64 25.67,0 49.39,4.28 71.36,12.64 21.97,8.56 41.81,21.39 59.11,38.11 18.08,17.31 31.5,36.75 40.83,57.94 9.34,21.78 13.81,44.53 13.81,68.44zm-115.89 0c0,-24.5 -6.22,-44.14 -18.67,-58.14 -12.44,-14.19 -29.36,-21.39 -50.36,-21.39 -21.39,0 -38.11,7.19 -50.56,21.39 -12.25,14 -18.47,33.64 -18.47,58.14 0,24.69 6.22,44.33 18.08,58.33 12.25,14 29.17,21 50.75,21 21.39,0 38.31,-7.19 50.56,-21 12.45,-13.99 18.67,-33.63 18.67,-58.33zm-321.03 -343.19l0 507.89 -107.33 0 0 -53.67c-14.78,22.36 -31.5,38.89 -49.97,49.97 -18.47,11.08 -39.08,16.53 -61.83,16.53 -46.47,0 -83.42,-15.94 -110.83,-48.22 -27.42,-32.08 -41.22,-75.44 -41.22,-129.69 0,-52.69 13.81,-95.28 41.22,-127.75 27.22,-32.47 63,-48.61 106.94,-48.61 28,0 50.75,4.86 68.25,14.97 17.5,10.11 33.25,27.03 46.86,50.56 -1.17,-7.97 -2.33,-16.72 -2.92,-26.64 -0.58,-10.11 -0.97,-20.81 -0.97,-32.47l0 -172.86 111.8 -0.01zm-103.44 342.8c0,-25.67 -6.81,-46.08 -20.42,-60.86 -13.42,-14.97 -32.28,-22.36 -55.61,-22.36 -23.53,0 -42,7.39 -55.61,22.36 -13.42,14.97 -20.03,35.19 -20.03,60.86 0,25.86 6.61,46.28 20.03,61.06 13.42,14.78 31.89,22.17 55.61,22.17 23.33,0 42.19,-7.39 55.61,-22.17 13.61,-14.97 20.42,-35.39 20.42,-61.06zm-689.89 165.09l0 -330.75 106.75 0 0 67.08c15.56,-27.03 33.25,-46.67 53.67,-59.31 20.22,-12.44 44.53,-18.67 72.72,-18.67 21.39,0 40.44,3.31 57.17,10.31 16.53,6.81 30.33,16.72 40.64,29.75 8.94,11.08 14.97,24.69 18.67,40.64 3.69,15.94 5.64,39.67 5.64,71.36l0 189.39 -116.68 0 0 -177.14c0,-26.44 -4.28,-45.5 -13.03,-57.75 -8.56,-11.86 -22.36,-17.89 -41.42,-17.89 -24.11,0 -41.81,8.94 -53.08,26.83 -11.08,17.89 -16.53,47.06 -16.53,87.31l0 138.83 -114.52 0.01zm-205.72 0l0 -330.75 116.47 0 0 330.75 -116.47 0zm-6.03 -434.2c0,-17.69 6.22,-32.67 18.86,-45.11 12.44,-12.44 27.61,-18.67 45.31,-18.67 18.47,0 33.64,6.03 45.89,18.28 12.44,12.25 18.47,27.22 18.47,45.5 0,18.28 -6.22,33.44 -18.86,46.08 -12.44,12.64 -27.81,19.06 -45.5,19.06 -17.5,0 -32.67,-6.61 -45.31,-19.44 -12.44,-12.84 -18.86,-28 -18.86,-45.7zm-80.89 103.45l0 168.78c0,37.33 -3.11,65.14 -9.14,83.03 -6.03,18.08 -16.14,34.03 -30.33,48.03 -14.58,14.78 -32.86,25.67 -54.64,32.86 -21.97,7.19 -47.44,10.69 -77,10.69 -29.17,0 -54.83,-3.5 -76.42,-10.69 -21.58,-7.19 -40.06,-18.08 -55.42,-32.86 -14.19,-13.61 -24.11,-29.36 -30.14,-47.64 -5.83,-18.28 -8.94,-46.08 -8.94,-83.42l0 -168.78 111.23 0 0 176.36c0,27.61 4.47,47.64 13.81,60.08 9.14,12.25 23.92,18.47 44.53,18.47 20.81,0 35.58,-6.03 44.72,-18.08 9.14,-12.25 13.61,-32.28 13.61,-60.28l0 -176.36 114.13 0 0 -0.19zm-637.97 330.75l0 -330.75 110.05 0 0 77.97c11.47,-28.58 26.83,-49.78 46.47,-63.97 19.64,-14.19 43.36,-21.39 71.36,-21.39 4.47,0 9.33,0.19 14,0.58 4.67,0.19 9.33,0.78 14.19,1.56l-11.47 105.97c-6.81,-2.33 -14,-3.89 -20.61,-5.06 -7,-0.97 -13.42,-1.56 -19.64,-1.56 -28.19,0 -50.17,8.75 -65.53,26.06 -15.17,17.31 -22.75,42 -22.75,73.69l0 136.89 -116.07 0.01zm-218.95 0l0 -248.31 -49.58 0 0 -82.44 49.58 0 0 -98.58 114.53 -0.01 0 98.58 49.59 0.01 0 82.44 -49.59 0 0 248.31 -114.53 0zm-373.13 -27.61l24.31 -89.25c17.11,14.97 35.58,26.25 56.19,34.42 20.42,7.97 41.03,11.86 61.64,11.86 14.58,0 25.86,-2.33 33.25,-7 7.78,-4.67 11.67,-11.47 11.67,-20.42 0,-14.78 -15.36,-25.67 -46.28,-32.86 -10.11,-2.33 -18.28,-4.47 -24.31,-6.22 -34.81,-9.53 -60.08,-22.17 -76.03,-37.92 -15.75,-15.56 -23.53,-35.78 -23.53,-60.86 0,-32.08 12.06,-57.75 36.17,-77 24.31,-19.25 56.78,-28.78 98,-28.78 21.19,0 42.78,2.53 64.75,7.39 21.97,5.06 44.33,12.64 67.28,22.75l-24.31 80.5c-15.36,-10.5 -31.11,-18.47 -47.06,-23.92 -16.14,-5.44 -31.89,-8.17 -47.83,-8.17 -13.42,0 -23.33,2.14 -30.33,6.22 -6.81,4.08 -10.31,10.11 -10.31,18.08 0,11.67 15.36,21.58 46.08,29.94 7,1.75 12.25,3.31 15.75,4.08 40.25,11.47 68.44,25.08 84.19,40.64 15.75,15.75 23.72,36.75 23.72,63.39 0,33.83 -13.03,61.25 -38.89,82.06 -26.06,20.81 -60.47,31.31 -103.06,31.31 -28.97,0 -56,-3.31 -80.89,-9.92 -25.06,-6.6 -48.4,-16.52 -70.17,-30.32zm-406.59 27.61l0 -330.75 106.75 0 0 67.08c15.36,-27.03 33.25,-46.67 53.47,-59.31 20.22,-12.44 44.53,-18.67 72.92,-18.67 21.39,0 40.44,3.31 56.97,10.31 16.72,6.81 30.33,16.72 40.64,29.75 8.94,11.08 14.97,24.69 18.67,40.64 3.69,15.94 5.64,39.67 5.64,71.36l0 189.39 -116.67 0 0 -177.14c0,-26.44 -4.28,-45.5 -13.03,-57.75 -8.75,-11.86 -22.36,-17.89 -41.22,-17.89 -24.31,0 -42,8.94 -53.28,26.83 -11.08,17.89 -16.53,47.06 -16.53,87.31l0 138.83 -114.33 0.01zm-67.08 -164.7c0,23.72 -4.67,46.67 -14,67.86 -9.14,21.39 -22.56,40.64 -40.44,57.56 -17.89,17.11 -37.92,29.94 -59.89,38.89 -22.36,8.75 -45.89,13.03 -70.58,13.03 -25.47,0 -49,-4.28 -71.17,-13.03 -22.36,-8.75 -42,-21.78 -59.5,-38.89 -17.5,-16.53 -30.92,-35.58 -39.86,-57.17 -9.14,-21.58 -13.81,-44.53 -13.81,-68.44 0,-24.11 4.47,-46.86 13.61,-68.44 8.94,-21.39 22.17,-40.44 40.06,-57.75 17.31,-16.72 36.94,-29.56 59.11,-38.11 22.17,-8.36 45.89,-12.64 71.56,-12.64 25.47,0 49.39,4.28 71.36,12.64 21.97,8.56 41.61,21.39 59.11,38.11 17.89,17.31 31.5,36.75 40.64,57.94 9.33,21.78 13.8,44.53 13.8,68.44zm-115.89 0c0,-24.5 -6.22,-44.14 -18.67,-58.14 -12.44,-14.19 -29.36,-21.39 -50.36,-21.39 -21.39,0 -38.31,7.19 -50.56,21.39 -12.25,14 -18.47,33.64 -18.47,58.14 0,24.69 6.22,44.33 18.28,58.33 12.25,14 29.17,21 50.75,21 21.39,0 38.11,-7.19 50.56,-21 12.25,-13.99 18.47,-33.63 18.47,-58.33zm-306.25 -57.36c-11.47,-10.11 -22.17,-17.31 -32.67,-21.97 -10.5,-4.47 -21.39,-6.81 -33.06,-6.81 -23.14,0 -41.42,7.58 -55.03,22.94 -13.61,15.36 -20.42,35.97 -20.42,62.22 0,25.28 7.19,45.5 21.39,60.67 14.19,15.17 33.06,22.75 57.17,22.75 11.86,0 22.94,-2.33 33.25,-7 10.5,-4.67 20.22,-12.06 29.56,-21.97l0 101.31c-14,7.97 -28,13.61 -41.81,17.31 -14,3.69 -28.39,5.44 -43.36,5.44 -50.75,0 -91.97,-16.33 -123.47,-49 -31.5,-32.67 -47.25,-75.64 -47.25,-128.92 0,-51.72 15.94,-94.11 48.22,-126.97 32.28,-32.86 73.5,-49.19 124.06,-49.19 16.53,0 31.89,1.56 45.31,4.86 13.61,3.11 26.44,8.56 38.31,15.75l-0.01 98.58 -0.19 0z"></path>
   <path class="fil2" d="M1369.44 478.72l6.03 0 -267.75 -473.08 529.67 -0.01 231.78 473.08 198.72 0.01 0 -473.08 556.69 -0.01 0 473.08 442.36 0.01 0 -473.08 556.7 -0.01 0 473.08 343 0.01 0 -473.08 556.69 -0.01 0 473.08 204.75 0.01 231.58 -473.08 529.67 -0.01 -367.11 647.89 0 274.17 -647.11 0c-12.06,-159.64 -120.36,-283.31 -255.69,-283.31 -132.42,0 -243.83,123.67 -255.89,283.31l-373.14 0c-12.06,-159.64 -120.36,-283.31 -255.69,-283.31 -132.42,0 -243.83,123.67 -255.89,283.31l-433.42 0c-12.06,-159.64 -120.36,-283.31 -255.69,-283.31 -132.42,0 -243.83,123.67 -255.69,283.31l-764.57 0 0 -448.97z"></path>
   <path class="fil2" d="M1363.8 473.08l6.03 0 -267.75 -473.08 529.67 0 231.78 473.08 198.52 0 0 -473.08 556.89 0 0 473.08 442.17 0 0 -473.08 556.89 0 0 473.08 343 0 0 -473.08 556.89 0 0 473.08 204.55 0 231.78 -473.08 529.67 0 -367.11 648.08 0 274.17 -646.92 0c-12.06,-159.64 -120.36,-283.31 -255.89,-283.31 -132.42,0 -243.64,123.67 -255.69,283.31l-373.14 0c-12.06,-159.64 -120.36,-283.31 -255.89,-283.31 -132.42,0 -243.64,123.67 -255.69,283.31l-433.23 0c-12.06,-159.64 -120.36,-283.31 -255.89,-283.31 -132.42,0 -243.64,123.67 -255.69,283.31l-764.36 0 0 -449.17 -0.59 0z"></path>
   <path class="fil2" d="M728.55 4935.98c-27.22,-15.17 -129.5,313.44 -171.5,66.31 -6.03,-132.61 0,-235.08 93.33,-262.11 87.31,-12.06 469.39,385.78 328.03,-141.56 57.17,-114.53 156.53,-210.97 198.53,-180.83 6.03,87.31 -42,259.19 0,292.25 60.28,120.56 225.75,162.75 159.64,286.42 -108.31,39.08 -123.47,-96.44 -222.64,-90.42 -33.06,150.69 -129.5,277.28 -276.89,141.75 -30.33,-24.51 -63.38,-60.48 -108.5,-111.81z"></path>
   <path class="fil2" d="M722.92 4930.34c-27.03,-15.17 -129.5,313.44 -171.5,66.11 -6.03,-132.61 0,-234.89 93.33,-262.11 87.31,-12.06 469.39,385.78 328.03,-141.56 57.17,-114.53 156.53,-210.97 198.72,-180.83 6.03,87.5 -42.19,259.19 0,292.25 60.28,120.56 225.75,162.75 159.44,286.22 -108.31,39.08 -123.28,-96.44 -222.64,-90.42 -33.25,150.5 -129.5,277.08 -276.89,141.56 -30.33,-23.92 -63.58,-60.08 -108.49,-111.22z"></path>
   <path class="fil2" d="M873.03 4604.45c18.08,63.19 -42.19,132.61 -126.39,69.22 -54.06,-18.08 -75.25,-84.39 -162.56,-57.17 -159.44,84.39 -111.22,611.72 -93.33,928.28 0,223.03 -153.42,268.14 -159.44,207.86 0,-235.08 6.03,-473.08 12.06,-708.17 2.92,-207.86 -36.17,-506.33 90.22,-599.67 78.35,-57.35 249.85,-78.35 439.44,159.65z"></path>
   <path class="fil2" d="M867.19 4598.62c18.08,63.39 -42.19,132.61 -126.39,69.42 -54.25,-18.28 -75.25,-84.39 -162.56,-57.36 -159.64,84.39 -111.42,611.72 -93.33,928.28 0,223.03 -153.42,268.14 -159.44,207.86 0,-235.08 5.83,-473.08 11.86,-708.17 3.11,-207.86 -35.97,-506.33 90.42,-599.67 78.36,-57.17 249.86,-78.36 439.44,159.64z"></path>
   <path class="fil2" d="M891.11 4520.06c141.36,108.5 306.83,-572.64 330.94,-651 42,-223.03 -123.47,-135.53 -105.39,3.11 30.14,304.31 -406.19,509.25 -225.55,647.89z"></path>
   <path class="fil2" d="M885.28 4514.42c141.56,108.5 306.83,-572.44 330.94,-651 42.19,-223.03 -123.47,-135.53 -105.39,3.11 30.34,304.31 -406,509.06 -225.55,647.89z"></path>
   <path class="fil2" d="M572.03 4312.2c159.44,108.5 370.22,-117.44 180.64,-217 -252.78,-153.61 -282.72,-325.5 -481.44,30.14 -54.06,99.36 -156.53,204.94 -216.61,280.19 -48.22,114.53 -9.14,153.61 48.03,105.39 297.88,-280 258.79,-442.94 469.38,-198.72z"></path>
   <path class="fil2" d="M566.39 4306.37c159.64,108.5 370.03,-117.64 180.64,-217 -252.78,-153.81 -282.92,-325.5 -481.44,30.14 -54.25,99.36 -156.53,204.75 -216.61,280.19 -48.22,114.53 -8.94,153.61 48.22,105.39 297.69,-280 258.41,-442.75 469.19,-198.72z"></path>
   <path class="fil2" d="M542.08 3848.06c159.44,108.5 427.19,-202.03 240.72,-304.31 -336.97,-183.94 -403.08,-569.53 -505.56,-370.81 -51.14,99.56 3.11,455 -249.67,768.44 -48.03,114.53 -8.94,153.61 48.22,105.39 291.68,-277.07 285.65,-605.49 466.29,-198.71z"></path>
   <path class="fil2" d="M536.25 3842.23c159.64,108.5 427.39,-202.03 240.72,-304.31 -336.97,-183.94 -403.28,-569.53 -505.56,-370.61 -51.14,99.56 2.92,455 -249.67,768.44 -48.22,114.53 -9.14,153.81 48.22,105.58 291.68,-277.46 285.65,-605.88 466.29,-199.1z"></path>
   <path class="fil2" d="M863.89 4053.01c69.22,66.31 114.53,-111.42 189.58,-265.03 63.19,-129.69 162.56,-231.97 177.53,-268.33 12.06,-54.25 36.17,-413 -66.31,-210.97 -2.72,301.38 -469.19,587.6 -300.8,744.33z"></path>
   <path class="fil2" d="M858.25 4047.37c69.22,66.31 114.33,-111.61 189.58,-265.22 63.19,-129.69 162.56,-231.97 177.53,-268.33 11.86,-54.25 35.97,-412.81 -66.31,-210.97 -2.91,301.38 -469.19,587.6 -300.8,744.52z"></path>
   <path class="fil2" d="M873.03 3561.64c138.44,168.78 291.86,-837.67 294.97,-843.89 12.06,-54.25 36.17,-412.81 -66.31,-210.97 42.2,304.5 -355.05,901.25 -228.66,1054.86z"></path>
   <path class="fil2" d="M867.19 3556.01c138.44,168.78 291.86,-837.67 294.97,-843.89 12.06,-54.25 36.17,-412.81 -66.11,-210.97 42,304.49 -355.25,901.24 -228.86,1054.86z"></path>
   <path class="fil2" d="M794.67 3341.73c-36.17,87.5 -174.61,-54.25 -285.83,-186.86 -93.33,-108.5 -297.89,-223.03 -322,-253.17 -162.56,-156.72 138.44,-202.03 219.72,-177.92 78.36,295.56 445.27,476.2 388.11,617.95z"></path>
   <path class="fil2" d="M789.03 3336.09c-36.17,87.5 -174.61,-54.25 -285.83,-186.86 -93.33,-108.5 -297.89,-223.03 -322,-253.17 -162.56,-156.72 138.44,-202.03 219.72,-177.72 78.16,295.17 445.27,476 388.11,617.75z"></path>
   <path class="fil2" d="M782.61 3106.64c51.14,48.22 132.42,-72.33 156.53,-174.81 105.39,-442.94 -21,-949.28 195.61,-1163.36 12.06,-54.25 60.08,-217 -15.17,-168.58 -111.42,105.39 -222.64,304.31 -213.69,885.89 2.92,235.08 -177.53,379.75 -168.58,500.31 6.22,54.44 21.19,99.36 45.3,120.55z"></path>
   <path class="fil2" d="M776.97 3100.81c51.14,48.22 132.42,-72.33 156.53,-174.81 105.39,-442.94 -21.19,-949.28 195.61,-1163.17 12.06,-54.25 60.28,-217 -14.97,-168.78 -111.42,105.58 -222.64,304.31 -213.69,885.89 2.92,235.08 -177.53,379.75 -168.58,500.31 6.02,54.45 20.99,99.76 45.1,120.56z"></path>
   <path class="fil2" d="M701.53 2895.67c-21,93.53 -90.22,-57.17 -201.64,-186.86 -93.33,-108.5 -237.61,-147.58 -261.72,-177.72 -162.56,-156.72 14.97,-479.11 96.25,-455 51.13,337.36 418.25,581.58 367.11,819.58z"></path>
   <path class="fil2" d="M695.69 2890.03c-21.19,93.33 -90.42,-57.36 -201.64,-186.86 -93.33,-108.5 -237.81,-147.78 -261.92,-177.72 -162.56,-156.72 14.97,-479.11 96.25,-455 51.34,337.36 418.45,581.39 367.31,819.58z"></path>
   <path class="fil2" d="M644.36 2455.63c27.03,15.17 14.97,-168.78 -24.11,-334.44 -21,-93.33 -51.14,-298.47 -108.31,-373.72 -102.28,-132.61 -312.86,-177.92 -336.97,-114.53 412.22,256.28 177.33,663.06 469.39,822.69z"></path>
   <path class="fil2" d="M638.53 2450c27.03,15.17 14.97,-168.78 -24.11,-334.44 -21.19,-93.33 -51.14,-298.28 -108.31,-373.72 -102.28,-132.61 -313.06,-177.72 -336.97,-114.53 412.22,256.07 177.53,663.05 469.39,822.69z"></path>
   <path class="fil2" d="M773.67 2588.45c14.97,21 45.11,-81.47 60.08,-253.17 9.14,-93.33 15.17,-325.5 -2.92,-413 -33.06,-159.83 -132.42,-241.11 -186.47,-159.83 3.11,114.53 72.33,253.17 87.31,427.97 11.86,144.86 -27.23,286.42 42,398.03z"></path>
   <path class="fil2" d="M767.83 2582.62c15.17,21 45.31,-81.47 60.28,-253.17 8.94,-93.53 14.97,-325.5 -3.11,-412.81 -33.06,-159.83 -132.42,-241.11 -186.47,-159.83 2.92,114.53 72.14,253.17 87.31,427.97 12.05,144.67 -27.04,286.23 41.99,397.84z"></path>
   <path class="fil2" d="M5856.26 5451.45c-168.58,-186.86 -219.72,-373.72 -270.86,-479.31 -39.08,-81.28 -87.31,-129.69 -75.25,-186.86 21,-120.56 138.44,-123.47 240.72,-174.81 93.33,-48.22 168.58,-111.42 225.56,-90.42 45.11,-3.11 315.97,198.92 301,349.61 -12.06,123.47 -168.58,202.03 -261.92,331.53 -105,141.76 -117.06,298.29 -159.25,250.26z"></path>
   <path class="fil2" d="M5850.62 5445.62c-168.58,-186.86 -219.72,-373.72 -270.86,-479.31 -39.28,-81.28 -87.31,-129.5 -75.25,-186.86 21,-120.56 138.44,-123.47 240.72,-174.81 93.33,-48.22 168.58,-111.61 225.75,-90.42 45.31,-3.11 315.97,198.92 300.81,349.61 -11.86,123.47 -168.58,202.03 -261.72,331.53 -105.39,141.76 -117.45,298.48 -159.45,250.26z"></path>
   <path class="fil2" d="M5248.43 4637.7c-12.06,-231.97 -120.36,-229.06 -108.31,-367.69 18.08,-286.22 767.28,-322.58 520.53,96.44 -39.08,69.22 -156.53,162.75 -255.89,192.69 -108.11,36.37 -153.22,120.75 -156.33,78.56z"></path>
   <path class="fil2" d="M5242.79 4631.87c-12.06,-231.97 -120.36,-229.06 -108.31,-367.69 18.08,-286.42 767.28,-322.39 520.72,96.44 -39.28,69.22 -156.53,162.75 -255.89,192.89 -108.5,36.16 -153.61,120.55 -156.52,78.36z"></path>
   <path class="fil2" d="M5323.68 3959.48c-81.28,-147.58 -132.42,-334.44 -123.47,-473.08 18.08,-286.22 851.67,-274.17 598.89,141.75 -24.11,42.19 -51.14,126.58 -114.33,174.81 -51.15,36.16 -328.04,216.99 -361.09,156.52z"></path>
   <path class="fil2" d="M5317.84 3953.84c-81.28,-147.78 -132.42,-334.44 -123.47,-473.08 18.08,-286.22 851.47,-274.17 598.89,141.75 -24.11,42.19 -51.14,126.58 -114.33,174.81 -51.14,35.96 -327.84,216.8 -361.09,156.52z"></path>
   <path class="fil2" d="M5561.29 3082.73c-102.28,-21.19 -150.5,-186.86 -171.5,-361.67 12.06,-6.03 24.11,-12.06 33.06,-21 18.08,8.94 39.08,15.17 60.28,15.17 72.14,0 129.31,-60.28 129.31,-132.61 0,-72.33 -57.17,-132.61 -129.31,-132.61 -30.14,0 -60.28,12.06 -84.39,30.14 -8.94,-6.03 -18.08,-8.94 -27.03,-12.06 0,-60.28 2.92,-108.5 2.92,-138.64 3.11,-39.08 24.11,-72.33 60.28,-102.47 14.97,66.31 78.36,114.53 153.42,114.53 87.31,0 156.53,-66.31 156.53,-147.58 0,-27.03 -9.14,-51.14 -21.19,-75.44 294.97,-45.11 647.11,36.17 490.58,295.36 -12.06,18.28 -93.33,12.06 -153.42,81.28 -75.25,84.39 -51.14,271.25 -219.72,262.31 -150.32,-6.43 -210.6,340.26 -279.82,325.29z"></path>
   <path class="fil2" d="M5555.65 3076.89c-102.47,-21 -150.5,-186.86 -171.5,-361.67 12.06,-6.03 24.11,-12.06 33.25,-21 18.08,8.94 39.08,15.17 60.08,15.17 72.33,0 129.5,-60.28 129.5,-132.61 0,-72.33 -57.17,-132.61 -129.5,-132.61 -30.14,0 -60.08,12.06 -84.19,30.14 -9.14,-6.03 -18.08,-8.94 -27.22,-12.06 0,-60.28 3.11,-108.5 3.11,-138.64 2.92,-39.08 24.11,-72.33 60.28,-102.47 14.97,66.31 78.17,114.53 153.42,114.53 87.31,0 156.53,-66.31 156.53,-147.78 0,-27.03 -8.94,-51.14 -21,-75.25 294.78,-45.11 646.92,36.17 490.39,295.36 -12.06,18.08 -93.33,12.06 -153.42,81.47 -75.25,84.39 -51.14,271.25 -219.72,262.11 -150.51,-6.21 -210.79,340.29 -280.01,325.31z"></path>
   <path class="fil2" d="M5925.48 4050.09c8.94,-3.11 21,-8.94 29.94,-15.17 -6.03,138.64 -12.06,283.31 -18.08,430.89 -54.06,-2.92 -123.28,51.14 -204.56,93.33 -30.14,15.17 -60.28,27.22 -90.22,39.28 6.03,-57.36 9.14,-117.64 12.06,-174.81 24.11,-24.11 45.11,-48.22 57.17,-69.22 87.31,-150.69 48.22,-244.22 -39.08,-286.42 3.11,-57.36 3.11,-117.44 6.03,-174.81 6.03,-6.03 14.97,-9.14 18.08,-12.06 6.03,30.14 21,54.25 45.11,69.22 -21,21 -36.17,51.14 -36.17,84.39 0,63.19 51.14,114.53 111.42,114.53 51.13,0.21 99.16,-41.98 108.3,-99.15z"></path>
   <path class="fil2" d="M5919.65 4044.26c9.14,-3.11 21,-8.94 30.14,-15.17 -6.03,138.64 -12.06,283.31 -18.08,430.89 -54.25,-2.92 -123.47,51.14 -204.56,93.33 -30.14,15.17 -60.08,27.22 -90.22,39.28 6.03,-57.36 8.94,-117.44 12.06,-174.81 24.11,-24.11 45.11,-48.22 57.17,-69.22 87.31,-150.69 48.22,-244.03 -39.08,-286.22 2.92,-57.17 2.92,-117.64 6.03,-174.81 6.03,-6.03 14.97,-8.94 17.89,-12.06 6.03,30.14 21.19,54.25 45.31,69.22 -21.19,21 -36.17,51.14 -36.17,84.39 0,63.39 51.14,114.53 111.42,114.53 50.92,0.01 99.14,-42.19 108.09,-99.35z"></path>
   <path class="fil2" d="M5934.43 2841.62c6.03,72.33 12.06,147.78 18.08,222.83 -72.33,3.11 -129.5,63.39 -129.5,138.64 0,75.44 60.28,138.64 135.53,138.64l2.91 0c3.11,156.72 0,319.47 -2.92,485.14 -12.06,6.03 -21.19,14.97 -30.14,24.11 -8.94,-3.11 -14.97,-6.03 -24.11,-6.03 -8.94,-51.14 -51.14,-90.42 -105.39,-90.42l-2.91 0c18.08,-36.17 33.06,-69.42 45.11,-90.42 138.44,-229.06 12.06,-358.56 -171.5,-400.75 -3.11,-69.22 -6.03,-138.44 -9.14,-207.86 45.11,-90.42 102.28,-198.92 189.58,-192.89 36.37,-3.1 63.4,-9.13 84.4,-20.99z"></path>
   <path class="fil2" d="M5928.79 2835.78c5.83,72.33 11.86,147.78 17.89,223.03 -72.14,2.92 -129.31,63.19 -129.31,138.64 0,75.25 60.08,138.64 135.33,138.64l3.11 0c2.92,156.72 0,319.47 -3.11,485.14 -12.06,6.03 -21,15.17 -29.94,24.11 -9.14,-3.11 -15.17,-6.03 -24.11,-6.03 -9.14,-51.14 -51.14,-90.42 -105.39,-90.42l-3.11 0c18.08,-36.17 33.25,-69.42 45.31,-90.42 138.44,-229.06 12.06,-358.56 -171.69,-400.75 -2.92,-69.42 -6.03,-138.64 -8.94,-208.06 45.11,-90.42 102.28,-198.92 189.58,-192.69 36.15,-3.1 63.38,-9.13 84.38,-21.19z"></path>
   <path class="fil2" d="M5636.54 1714.41c54.25,0 96.44,39.08 96.44,90.42 0,48.22 -42.19,90.42 -96.44,90.42 -54.06,0 -96.25,-39.08 -96.25,-90.42 0,-51.33 45.11,-90.42 96.25,-90.42z"></path>
   <path class="fil2" d="M5630.9 1708.58c54.25,0 96.25,39.08 96.25,90.42 0,48.22 -42,90.42 -96.25,90.42 -54.25,0 -96.44,-39.28 -96.44,-90.42 0,-51.14 45.3,-90.42 96.44,-90.42z"></path>
   <path class="fil2" d="M5344.68 1819.8c54.06,0 96.25,39.08 96.25,90.42 0,48.22 -42.19,90.42 -96.25,90.42 -54.25,0 -96.44,-39.08 -96.44,-90.42 3.3,-48.22 45.3,-90.42 96.44,-90.42z"></path>
   <path class="fil2" d="M5339.04 1814.16c54.25,0 96.44,39.08 96.44,90.42 0,48.22 -42.19,90.42 -96.44,90.42 -54.25,0 -96.25,-39.28 -96.25,-90.42 2.91,-48.22 45.11,-90.42 96.25,-90.42z"></path>
   <path class="fil2" d="M5528.23 1931.41c54.25,0 96.25,39.08 96.25,90.42 0,48.22 -42,90.42 -96.25,90.42 -54.25,0 -96.25,-39.08 -96.25,-90.42 0,-51.33 42.2,-90.42 96.25,-90.42z"></path>
   <path class="fil2" d="M5522.59 1925.58c54.06,0 96.25,39.08 96.25,90.42 0,48.22 -42.19,90.42 -96.25,90.42 -54.25,0 -96.44,-39.08 -96.44,-90.42 0,-51.34 42.19,-90.42 96.44,-90.42z"></path>
   <path class="fil2" d="M5591.43 2106.02c54.25,0 96.25,39.28 96.25,90.42 0,48.22 -42,90.42 -96.25,90.42 -54.25,0 -96.25,-39.08 -96.25,-90.42 0,-51.34 42,-90.42 96.25,-90.42z"></path>
   <path class="fil2" d="M5585.79 2100.38c54.06,0 96.25,39.08 96.25,90.42 0,48.22 -42.19,90.42 -96.25,90.42 -54.25,0 -96.44,-39.08 -96.44,-90.42 0,-51.34 42.19,-90.42 96.44,-90.42z"></path>
   <path class="fil2" d="M5790.15 1828.94c54.25,0 96.25,39.08 96.25,90.42 0,48.22 -42,90.42 -96.25,90.42 -54.25,0 -96.44,-39.28 -96.44,-90.42 3.1,-48.23 45.3,-90.42 96.44,-90.42z"></path>
   <path class="fil2" d="M5784.31 1823.11c54.25,0 96.44,39.08 96.44,90.42 0,48.22 -42.19,90.42 -96.44,90.42 -54.06,0 -96.25,-39.28 -96.25,-90.42 2.92,-48.23 45.12,-90.42 96.25,-90.42z"></path>
   <path class="fil2" d="M5492.06 2504.05c45.11,0 84.39,39.08 84.39,84.39 0,48.22 -39.28,84.39 -84.39,84.39 -33.06,0 -63.19,-21 -75.25,-48.22 -12.06,33.25 -42.19,57.36 -78.17,57.36 8.94,12.06 12.06,27.03 12.06,45.11 0,48.22 -39.28,84.39 -84.39,84.39 -45.11,0 -84.19,-39.08 -84.19,-84.39 0,-45.11 35.97,-84.39 81.28,-84.39 -9.14,-12.06 -12.06,-27.03 -12.06,-45.11 0,-48.22 39.08,-84.39 84.19,-84.39 33.06,0 63.19,21 75.25,48.22 12.06,-33.44 42.2,-57.36 81.28,-57.36z"></path>
   <path class="fil2" d="M5486.43 2498.22c45.11,0 84.19,39.08 84.19,84.39 0,48.22 -39.08,84.39 -84.19,84.39 -33.25,0 -63.19,-21 -75.25,-48.22 -12.06,33.25 -42.19,57.36 -78.36,57.36 9.14,12.06 12.06,27.03 12.06,45.11 0,48.22 -39.08,84.39 -84.19,84.39 -45.31,0 -84.39,-39.28 -84.39,-84.39 0,-45.11 36.17,-84.39 81.28,-84.39 -8.94,-12.06 -12.06,-27.22 -12.06,-45.31 0,-48.22 39.08,-84.39 84.39,-84.39 33.06,0 63.19,21 75.25,48.22 12.04,-33.05 42.18,-57.16 81.27,-57.16z"></path>
   <path class="fil2" d="M5958.54 3115.78c45.11,0 84.19,39.08 84.19,84.19 0,48.22 -39.08,84.39 -84.19,84.39 -45.11,0 -84.39,-39.08 -84.39,-84.39 0.19,-45.1 39.28,-84.19 84.39,-84.19z"></path>
   <path class="fil2" d="M5952.7 3109.95c45.31,0 84.39,39.08 84.39,84.39 0,48.22 -39.08,84.39 -84.39,84.39 -45.11,0 -84.19,-39.28 -84.19,-84.39 0.19,-45.11 39.28,-84.39 84.19,-84.39z"></path>
   <path class="fil2" d="M6009.68 3851.17c39.08,0 72.33,33.06 72.33,72.33 0,39.08 -33.25,72.33 -72.33,72.33 -18.08,0 -36.17,-8.94 -51.14,-21 -9.14,27.03 -36.17,48.22 -66.31,48.22 -2.92,0 -6.03,0 -8.94,0 0,3.11 0,8.94 0,12.06 0,39.08 -33.06,72.33 -72.33,72.33 -39.08,0 -72.14,-33.06 -72.14,-72.33 0,-39.08 33.06,-72.33 72.14,-72.33 3.11,0 6.03,0 9.14,0 0,-3.11 0,-8.94 0,-12.06 0,-6.03 0,-14.97 2.92,-21.19 -8.94,3.11 -18.08,6.03 -27.03,6.03 -39.08,0 -72.33,-33.25 -72.33,-72.33 0,-39.08 33.25,-72.33 72.33,-72.33 39.08,0 72.14,33.06 72.14,72.33 0,6.03 0,15.17 -2.92,21 8.94,-2.92 18.08,-6.03 27.03,-6.03 18.08,0 36.17,8.94 51.14,21 9.13,-29.94 36.35,-48.03 66.3,-48.03z"></path>
   <path class="fil2" d="M6004.04 3845.34c39.08,0 72.14,33.25 72.14,72.33 0,39.08 -33.06,72.33 -72.14,72.33 -18.08,0 -36.17,-8.94 -51.33,-21 -8.94,27.03 -35.97,48.22 -66.11,48.22 -3.11,0 -6.03,0 -9.14,0 0,3.11 0,9.14 0,12.06 0,39.28 -33.06,72.33 -72.14,72.33 -39.08,0 -72.33,-33.06 -72.33,-72.33 0,-39.08 33.25,-72.33 72.33,-72.33 2.92,0 6.03,0 8.94,0 0,-3.11 0,-8.94 0,-12.06 0,-6.03 0,-14.97 3.11,-21.19 -9.14,3.11 -18.08,6.03 -27.22,6.03 -39.08,0 -72.14,-33.06 -72.14,-72.33 0,-39.28 33.06,-72.53 72.14,-72.53 39.28,0 72.14,33.25 72.14,72.53 0,6.03 0,14.97 -3.11,21 9.14,-3.11 18.08,-6.03 27.22,-6.03 18.08,0 36.17,8.94 51.14,21 9.33,-29.95 36.36,-48.03 66.5,-48.03z"></path>
   <path class="fil0" d="M5116.01 2763.06l0 180.83 0 1085c0,1018.5 -842.53,1853.44 -1871.72,1853.44 -1029,0 -1871.72,-834.75 -1871.72,-1853.44l0 -1085 0 -180.83 0 -1678.64 3740.34 0 0 1678.64 3.11 0z"></path>
   <path class="fil0" d="M5110.18 2757.42l0 180.83 0 1085c0,1018.5 -842.53,1853.44 -1871.72,1853.44 -1029.19,0 -1871.72,-834.94 -1871.72,-1853.44l0 -1085 0 -180.83 -0.01 -1678.64 3740.54 0 0 1678.44 2.92 0.01 0 0.19z"></path>
   <polygon class="fil3" points="3244.29,2389.52 3454.87,3082.73 4143.98,3082.73 3587.29,3510.51 3800.98,4203.7 3244.29,3775.73 2687.59,4203.7 2901.29,3510.51 2344.39,3082.73 3033.7,3082.73 "></polygon>
   <polygon class="fil3" points="3238.65,2383.69 3449.23,3076.89 4138.34,3076.89 3581.65,3504.87 3795.34,4197.87 3238.65,3769.89 2681.95,4197.87 2895.45,3504.87 2338.75,3076.89 3027.87,3076.89 "></polygon>
   <path class="fil2" d="M4652.65 6337.34l532.58 24.11 129.5 -626.69c-180.64,238 -406.39,442.94 -662.08,602.58z"></path>
   <path class="fil2" d="M4646.81 6331.7l532.78 24.11 129.31 -626.89c-180.64,238 -406.39,442.95 -662.09,602.78z"></path>
   <path class="fil2" d="M5248.43 6373.51l192.69 -931.19 -427.19 -222.83 586.83 2.92c29.94,66.31 69.22,135.53 123.28,210.97l-475.61 940.13z"></path>
   <path class="fil2" d="M5242.79 6367.87l192.69 -931.19 -427.39 -223.03 586.83 2.92c30.14,66.31 69.22,135.72 123.47,210.97l-475.6 940.33z"></path>
   <polygon class="fil2" points="1170.92,6373.51 978.42,5442.31 1363.42,5201.2 587.19,5222.2 "></polygon>
   <polygon class="fil2" points="1165.28,6367.87 972.58,5436.67 1357.78,5195.37 581.36,5216.56 "></polygon>
   <path class="fil2" d="M1763.78 6337.34l-532.58 24.11 -129.5 -626.69c183.55,238 406.19,442.94 662.08,602.58z"></path>
   <path class="fil2" d="M1757.94 6331.7l-532.58 24.11 -129.5 -626.89c183.56,238 406.39,442.95 662.08,602.78z"></path>
   <path class="fil2" d="M5380.84 5481.59c-436.33,741.22 -1248.92,1241.72 -2172.53,1241.72 -890.75,0 -1679.22,-467.25 -2124.5,-1166.28 -14.97,-21 -27.03,-45.31 -42,-66.31l496.42 -262.11c367.11,527.33 980.97,874.03 1670.28,874.03 692.03,0 1302.97,-346.5 1670.08,-874.03l502.25 252.98z"></path>
   <path class="fil2" d="M5375.01 5475.76c-436.33,741.22 -1248.92,1241.53 -2172.72,1241.53 -890.75,0 -1679.22,-467.06 -2124.5,-1166.28 -14.97,-21.19 -27.03,-45.31 -42.19,-66.31l496.61 -262.11c366.92,527.33 980.97,874.03 1670.08,874.03 692.22,0 1302.97,-346.5 1670.08,-874.03l502.64 253.17z"></path>
   <path class="fil4" d="M1685.61 5789.78c8.94,-13.03 14.97,-16.14 24.11,-29.17 33.06,29.17 48.03,45.31 81.28,71.17 0,0 0,3.11 -3.11,3.11 0,0 -2.92,3.31 -2.92,6.42 -18.08,25.86 -39.28,38.89 -63.19,38.89 -24.11,0 -51.14,-9.72 -75.25,-35.58 -11.86,-12.83 -23.92,-22.56 -29.94,-35.58 -6.03,-12.83 -12.06,-25.67 -12.06,-38.69 -3.11,-12.83 0,-25.86 2.92,-38.69 3.11,-13.03 9.14,-22.56 18.08,-32.28 9.14,-9.72 18.08,-16.14 30.14,-22.56 12.06,-3.31 24.11,-6.61 36.17,-6.61 12.06,0 24.11,3.31 35.97,9.72 12.06,6.42 24.11,13.03 36.17,22.56 15.17,13.03 24.11,25.86 33.25,42 6.03,16.14 11.86,32.28 8.94,48.42 -18.08,-6.42 -30.14,-9.53 -48.22,-16.14 0,-9.53 -2.92,-16.14 -6.03,-25.86 -2.92,-6.42 -8.94,-12.83 -14.97,-19.25 -12.06,-9.72 -24.11,-16.14 -36.17,-16.14 -12.06,0 -24.11,6.42 -36.17,19.25 -12.06,13.03 -14.97,25.86 -14.97,38.89 0,12.83 8.94,25.86 21,38.69 12.06,9.72 21.19,16.14 33.25,16.14 12.06,3.31 21,0 27.03,-6.42 -18.28,-9.73 -27.42,-19.45 -45.31,-32.29z"></path>
   <path class="fil4" d="M1679.78 5783.95c9.14,-13.03 15.17,-16.14 24.11,-29.17 33.06,29.17 48.22,45.31 81.28,71.17 0,0 0,3.11 -2.92,3.11 0,0 -3.11,3.31 -3.11,6.61 -18.08,25.67 -39.08,38.69 -63.19,38.69 -24.11,0 -51.14,-9.72 -75.25,-35.58 -12.06,-12.83 -24.11,-22.56 -30.14,-35.58 -6.03,-12.83 -12.06,-25.67 -12.06,-38.69 -2.92,-12.83 0,-25.86 3.11,-38.69 2.92,-12.83 8.94,-22.56 18.08,-32.28 8.94,-9.72 18.08,-16.14 29.94,-22.56 12.06,-3.31 24.11,-6.61 36.17,-6.61 12.06,0 24.11,3.31 36.17,9.72 12.06,6.42 24.11,13.03 36.17,22.75 14.97,12.83 24.11,25.67 33.06,41.81 6.03,16.14 12.06,32.28 9.14,48.42 -18.08,-6.42 -30.14,-9.53 -48.22,-16.14 0,-9.53 -3.11,-16.14 -6.03,-25.67 -3.11,-6.61 -9.14,-13.03 -14.97,-19.44 -12.06,-9.72 -24.11,-16.14 -36.17,-16.14 -12.06,0 -24.11,6.42 -36.17,19.44 -12.06,12.83 -14.97,25.67 -14.97,38.69 0,12.83 8.94,25.86 21,38.69 12.06,9.72 21,16.14 33.06,16.14 12.06,3.31 21.19,0 27.22,-6.42 -18.29,-9.71 -27.23,-19.44 -45.31,-32.27z"></path>
   <path class="fil4" d="M1760.67 5938.14c39.08,-58.14 60.08,-87.11 102.28,-141.94 18.08,12.83 24.11,19.44 42.19,32.28 -39.08,58.14 -60.28,87.11 -99.36,145.25 -18.09,-16.34 -27.03,-22.75 -45.11,-35.59z"></path>
   <path class="fil4" d="M1755.03 5932.51c39.28,-58.14 60.28,-87.31 102.47,-141.94 18.08,12.83 24.11,19.44 42,32.28 -39.08,58.14 -60.08,87.11 -99.17,145.25 -18.28,-16.34 -27.41,-22.76 -45.3,-35.59z"></path>
   <g>
    <path class="fil4" d="M1932.17 5950.98l0 0c3.11,3.31 6.03,3.31 9.14,6.42 8.94,6.42 18.08,9.72 24.11,9.72 6.03,0 11.86,-3.31 14.97,-9.72 2.92,-6.42 6.03,-12.83 2.92,-19.25 -2.92,-6.61 -8.94,-13.03 -17.89,-19.44 -3.11,-3.31 -6.03,-3.31 -9.14,-6.42 -8.95,16.13 -12.06,25.85 -24.11,38.69l0 0zm-90.23 48.41c39.08,-58.14 57.17,-87.11 96.25,-148.36 18.08,13.03 27.22,19.44 45.11,32.28 18.08,13.03 30.14,22.75 36.17,29.17 6.03,6.42 12.06,12.83 15.17,19.25 2.92,6.61 6.03,16.14 2.92,25.86 0,9.72 -2.92,16.14 -6.03,25.86 -6.03,12.83 -14.97,19.44 -27.03,22.56 -12.06,3.31 -24.11,3.31 -36.17,-3.11 3.11,35.39 6.03,54.83 12.06,93.53 -21,-12.83 -33.06,-19.25 -54.25,-35.39 -2.92,-35.58 -2.92,-51.72 -2.92,-87.11 -15.17,22.56 -21.19,35.58 -36.17,58.14 -21,-13.23 -27.02,-19.65 -45.11,-32.68z"></path>
   </g>
   <g>
    <path class="fil4" d="M1926.53 5945.34l0 0c2.92,3.31 6.03,3.31 8.94,6.42 9.14,6.61 18.08,9.72 24.11,9.72 6.03,0 12.06,-3.11 15.17,-9.72 2.92,-6.42 5.83,-12.83 2.92,-19.25 -2.92,-6.42 -8.94,-13.03 -18.08,-19.44 -2.92,-3.31 -6.03,-3.31 -8.94,-6.42 -9.15,16.13 -12.07,25.86 -24.12,38.69l0 0zm-90.42 48.42c39.28,-58.14 57.36,-87.11 96.44,-148.56 18.08,13.03 27.03,19.44 45.11,32.28 18.08,13.03 30.14,22.75 36.17,29.17 6.03,6.42 12.06,12.83 14.97,19.44 3.11,6.42 6.03,16.14 3.11,25.67 0,9.72 -3.11,16.14 -6.03,25.86 -6.03,13.03 -15.17,19.44 -27.22,22.56 -12.06,3.31 -23.92,3.31 -35.97,-3.11 2.92,35.39 6.03,54.83 12.06,93.53 -21.19,-12.83 -33.25,-19.25 -54.25,-35.39 -3.11,-35.58 -3.11,-51.72 -3.11,-87.11 -14.97,22.75 -21,35.58 -35.97,58.14 -21.2,-13.23 -27.23,-19.65 -45.31,-32.48z"></path>
   </g>
   <g>
    <path class="fil4" d="M2070.61 6073.67l0 0c18.08,9.72 27.22,16.14 45.31,25.86 2.92,-25.86 6.03,-38.69 8.94,-61.44 0,-3.11 0,-6.42 3.11,-9.53 0,-3.31 2.92,-9.72 2.92,-16.14 -2.92,3.11 -6.03,6.42 -8.94,9.53 -3.11,3.31 -6.03,6.61 -9.14,9.72 -14.98,19.45 -24.12,25.86 -42.2,42l0 0zm-96.25 19.45c57.17,-45.11 87.31,-71.17 141.56,-119.39 21,13.03 33.06,19.44 57.17,32.28 -9.14,77.58 -12.06,116.28 -15.17,193.67 -18.08,-9.72 -29.94,-16.14 -48.03,-25.86 2.92,-13.03 2.92,-19.44 6.03,-32.28 -27.22,-16.14 -39.08,-22.56 -66.31,-38.89 -8.94,9.72 -14.97,13.03 -24.11,22.75 -24.11,-16.14 -33.06,-22.76 -51.14,-32.28z"></path>
   </g>
   <g>
    <path class="fil4" d="M2064.97 6067.84l0 0c18.08,9.72 27.03,16.14 45.11,25.86 3.11,-25.86 6.03,-38.69 9.14,-61.44 0,-3.11 0,-6.42 2.92,-9.53 0,-3.31 3.11,-9.72 3.11,-16.14 -3.11,3.11 -6.03,6.42 -9.14,9.53 -2.92,3.31 -6.03,6.61 -8.94,9.72 -15.17,19.44 -24.12,25.86 -42.2,42l0 0zm-96.25 19.44c57.17,-45.31 87.31,-71.17 141.36,-119.39 21.19,13.03 33.06,19.44 57.17,32.28 -8.94,77.58 -12.06,116.28 -14.97,193.67 -18.08,-9.72 -30.14,-16.14 -48.22,-25.86 3.11,-13.03 3.11,-19.44 6.03,-32.28 -27.03,-16.14 -39.08,-22.56 -66.11,-38.69 -9.14,9.53 -15.17,12.83 -24.11,22.56 -24.12,-16.15 -33.26,-22.56 -51.15,-32.29z"></path>
   </g>
   <path class="fil4" d="M2239.19 6041.39c18.08,9.72 27.22,12.83 45.31,22.56 -12.06,32.28 -21.19,48.42 -33.25,80.69 -6.03,13.03 -8.94,19.44 -8.94,25.86 -3.11,6.42 -3.11,9.72 -3.11,13.03 0,6.42 3.11,9.53 6.03,12.83 3.11,3.31 9.14,9.72 15.17,12.83 6.03,3.31 12.06,3.31 18.08,3.31 6.02,0 8.94,-3.31 14.97,-6.42 3.11,-3.31 6.03,-6.42 9.14,-13.03 2.92,-6.42 5.83,-12.83 11.86,-25.67 3.11,-3.31 3.11,-6.61 3.11,-13.03 12.06,-28.97 14.97,-42 27.03,-67.86 18.08,9.72 27.22,13.03 45.11,19.44 -11.86,35.58 -17.89,51.72 -33.06,87.11 -6.03,19.44 -12.06,32.28 -18.08,38.89 -6.03,6.42 -12.06,12.83 -21,16.14 -9.14,3.11 -18.08,6.42 -30.14,3.11 -12.06,-3.11 -27.03,-6.42 -42.19,-12.83 -14.97,-6.42 -27.03,-16.14 -35.97,-22.56 -9.14,-9.72 -15.17,-19.44 -18.08,-29.17 -3.11,-9.72 -3.11,-19.25 -3.11,-28.97 0,-9.72 6.03,-22.56 15.17,-42 2.92,-6.42 6.03,-9.72 8.94,-16.14 8.93,-16.12 14.96,-29.14 27.01,-58.12z"></path>
   <path class="fil4" d="M2233.36 6035.56c18.08,9.72 27.03,13.03 45.11,22.56 -12.06,32.28 -21,48.42 -33.06,80.69 -6.03,13.03 -9.14,19.44 -9.14,25.86 -2.92,6.61 -2.92,9.72 -2.92,13.03 0,6.42 2.92,9.72 6.03,12.83 2.92,3.31 8.94,9.72 14.97,13.03 6.03,3.11 12.06,3.11 18.08,3.11 6.03,0 9.14,-3.11 15.17,-6.42 2.92,-3.31 6.03,-6.42 8.94,-12.83 3.11,-6.61 6.03,-13.03 12.06,-25.86 2.92,-3.31 2.92,-6.61 2.92,-13.03 12.06,-28.97 15.17,-42 27.22,-67.67 18.08,9.53 27.03,12.83 45.11,19.25 -12.06,35.58 -18.08,51.72 -33.06,87.11 -6.03,19.25 -12.06,32.28 -18.08,38.69 -6.03,6.42 -12.06,12.83 -21.19,16.14 -8.94,3.11 -17.89,6.42 -30.14,3.11 -12.06,-3.11 -27.22,-6.42 -42.19,-12.83 -14.97,-6.42 -27.03,-16.14 -36.17,-22.56 -8.94,-9.72 -14.97,-19.44 -18.08,-29.17 -2.92,-9.53 -2.92,-19.25 -2.92,-28.97 0,-9.72 6.03,-22.56 14.97,-42 3.11,-6.42 6.03,-9.72 9.14,-16.14 9.34,-15.93 15.37,-28.76 27.23,-57.93z"></path>
   <g>
    <path class="fil4" d="M2510.06 6306.03l0 0c2.92,0 6.03,3.11 8.94,3.11 21.19,6.42 36.17,6.42 45.11,3.31 12.06,-3.31 18.08,-16.14 24.11,-32.28 3.11,-16.14 3.11,-29.17 -2.92,-42 -6.03,-9.72 -21.19,-19.44 -39.08,-25.86 -3.11,0 -6.03,0 -9.14,-3.31 -12.04,38.89 -18.07,58.34 -27.02,97.03l0 0zm-63.19 19.25c21,-67.67 33.06,-103.25 54.06,-171.11 15.17,6.42 21.19,6.42 36.17,13.03 27.03,9.53 45.11,16.14 57.17,22.56 12.06,6.42 21.19,12.83 27.22,22.56 8.94,9.72 14.97,22.56 17.89,35.58 3.11,12.83 3.11,28.97 0,42 -2.92,16.14 -8.94,28.97 -17.89,38.69 -9.14,9.72 -21.19,16.14 -33.25,22.56 -12.06,3.31 -21,3.31 -33.06,3.31 -12.06,0 -30.14,-6.61 -54.25,-13.03 -2.92,0 -6.03,-3.11 -8.94,-3.11 -21.2,-3.31 -27.04,-6.62 -45.12,-13.04z"></path>
   </g>
   <g>
    <path class="fil4" d="M2504.22 6300.2l0 0c3.11,0 6.03,3.11 9.14,3.11 21,6.61 36.17,6.61 45.11,3.31 12.06,-3.31 18.08,-16.14 24.11,-32.28 2.92,-16.14 2.92,-29.17 -3.11,-42 -6.03,-9.72 -21,-19.44 -39.08,-25.86 -2.92,0 -6.03,0 -8.94,-3.11 -12.06,38.89 -18.09,58.14 -27.23,96.83l0 0zm-63.19 19.44c21.19,-67.67 33.06,-103.25 54.25,-171.11 14.97,6.42 21,6.42 36.17,13.03 27.03,9.72 45.11,16.14 57.17,22.56 12.06,6.42 21,12.83 27.03,22.56 9.14,9.72 15.17,22.56 18.08,35.58 3.11,12.83 3.11,28.97 0,42 -2.92,16.14 -8.94,28.97 -18.08,38.69 -8.94,9.72 -21,16.14 -33.06,22.56 -12.06,3.31 -21.19,3.31 -33.06,3.31 -12.06,0 -30.14,-6.42 -54.25,-13.03 -3.11,0 -6.03,-3.11 -9.14,-3.11 -21,-3.31 -27.03,-6.62 -45.11,-13.04z"></path>
   </g>
   <g>
    <path class="fil4" d="M2750.79 6373.7l0 0c15.17,3.31 27.22,0 39.28,-6.42 11.86,-6.42 17.89,-19.44 21,-35.58 2.92,-16.14 0,-28.97 -9.14,-38.69 -5.83,-12.83 -17.89,-19.25 -29.94,-22.56 -15.17,-3.31 -27.22,0 -36.17,6.42 -12.06,6.42 -18.08,19.44 -21,32.28 -3.11,16.14 0,29.17 5.83,38.69 6.03,16.33 14.97,22.75 30.14,25.86l0 0zm108.3 -32.28c-3.11,13.03 -6.03,25.86 -12.06,35.58 -6.03,9.72 -15.17,19.44 -27.22,25.86 -12.06,6.42 -23.92,12.83 -35.97,12.83 -12.06,3.31 -27.22,3.31 -39.28,0 -14.97,-3.11 -27.03,-9.72 -39.08,-16.14 -12.06,-6.42 -21,-16.14 -30.14,-28.97 -8.94,-9.72 -12.06,-22.56 -14.97,-35.58 -3.11,-12.83 -3.11,-25.86 0,-38.69 2.92,-13.03 8.94,-22.56 14.97,-32.28 6.03,-9.72 18.08,-19.44 27.22,-25.86 11.86,-6.42 21,-9.72 35.97,-13.03 12.06,-3.11 24.11,-3.11 39.28,0 12.06,3.31 23.92,6.61 35.97,13.03 12.06,6.42 21.19,16.14 27.22,25.86 8.94,9.72 12.06,22.56 14.97,32.28 3.12,19.25 6.04,32.28 3.12,45.11z"></path>
   </g>
   <g>
    <path class="fil4" d="M2744.95 6368.06l0 0c14.97,3.31 27.03,0 39.08,-6.42 12.06,-6.42 18.08,-19.25 21,-35.39 3.11,-16.14 0,-29.17 -8.94,-38.89 -6.03,-12.83 -18.08,-19.25 -30.14,-22.56 -14.97,-3.31 -27.03,0 -36.17,6.42 -12.06,6.61 -17.89,19.44 -21,32.28 -2.92,16.14 0,29.17 6.03,38.89 6.23,15.95 15.17,22.37 30.14,25.67l0 0zm108.31 -32.28c-2.92,13.03 -6.03,25.86 -12.06,35.58 -6.03,9.72 -14.97,19.44 -27.03,25.86 -12.06,6.42 -24.11,12.83 -36.17,12.83 -12.06,3.31 -27.03,3.31 -39.08,0 -15.17,-3.11 -27.03,-9.72 -39.08,-16.14 -12.06,-6.42 -21.19,-16.14 -30.14,-28.97 -9.14,-9.72 -12.06,-22.56 -15.17,-35.58 -2.92,-12.83 -2.92,-25.86 0,-38.69 3.11,-12.83 9.14,-22.56 15.17,-32.28 6.03,-9.72 18.08,-19.44 27.03,-25.86 12.06,-6.42 21,-9.72 36.17,-12.83 12.06,-3.31 24.11,-3.31 39.08,0 12.06,3.11 24.11,6.42 36.17,12.83 12.06,6.42 21,16.14 27.03,25.86 9.14,9.72 12.06,22.56 15.17,32.28 2.91,19.25 6.02,32.09 2.91,45.11z"></path>
   </g>
   <g>
    <path class="fil4" d="M3021.65 6351.14l0 0c2.92,0 6.03,0 8.94,0 12.06,0 21,0 27.03,-3.31 6.03,-3.11 9.14,-9.53 9.14,-16.14 0,-6.42 -3.11,-12.83 -6.03,-16.14 -6.03,-3.11 -12.06,-6.42 -24.11,-6.42 -2.92,0 -6.03,0 -8.94,0 -3.12,16.15 -6.03,25.88 -6.03,42.01l0 0zm-6.03 96.84c-21.19,-3.11 -30.14,-3.11 -48.22,-3.11 6.03,-71.17 8.94,-106.56 18.08,-177.53 21,3.31 30.14,3.31 51.14,6.61 21,3.11 33.06,3.11 42.19,6.42 8.94,3.11 14.97,6.42 21,9.72 6.03,6.42 12.06,12.83 15.17,22.56 2.92,9.72 6.03,16.14 2.92,28.97 0,9.72 -2.92,19.44 -6.03,29.17 -2.92,6.42 -8.94,12.83 -18.08,19.25 -6.03,3.31 -12.06,6.61 -18.08,6.61 -6.03,0 -18.08,0 -35.97,0 -3.11,0 -6.03,0 -9.14,0 -2.92,0 -6.03,0 -8.94,0 -6.04,15.94 -6.04,28.77 -6.04,51.33z"></path>
   </g>
   <g>
    <path class="fil4" d="M3015.81 6345.51l0 0c3.11,0 6.03,0 9.14,0 12.06,0 21,0 27.03,-3.11 6.03,-3.31 8.94,-9.72 8.94,-16.14 0,-6.61 -2.92,-13.03 -6.03,-16.14 -5.83,-3.31 -11.86,-6.61 -23.92,-6.61 -3.11,0 -6.03,0 -9.14,0 -2.9,16.13 -6.02,25.86 -6.02,42l0 0zm-6.02 96.63c-21,-3.11 -30.14,-3.11 -48.03,-3.11 5.83,-71.17 8.94,-106.56 17.89,-177.53 21.19,3.31 30.14,3.31 51.33,6.61 21,3.11 33.06,3.11 42,6.42 9.14,3.31 15.17,6.42 21.19,9.72 6.03,6.42 12.06,12.83 14.97,22.56 3.11,9.72 6.03,16.14 3.11,28.97 0,9.72 -3.11,19.44 -6.03,29.17 -3.11,6.42 -9.14,12.83 -18.08,19.25 -6.03,3.31 -12.06,6.61 -18.08,6.61 -6.03,0 -18.08,0 -36.17,0 -2.92,0 -6.03,0 -8.94,0 -3.11,0 -6.03,0 -9.14,0 -6.02,15.95 -6.02,28.78 -6.02,51.33z"></path>
   </g>
   <g>
    <path class="fil4" d="M3232.23 6422.12l0 0c15.17,0 27.22,-6.42 36.17,-16.14 9.14,-9.53 12.06,-22.56 12.06,-38.69 0,-16.14 -6.03,-28.97 -14.97,-38.69 -9.14,-9.72 -21.19,-16.14 -36.17,-13.03 -15.17,0 -24.11,6.61 -33.06,16.14 -9.14,9.72 -15.17,22.75 -15.17,38.89 0,16.14 3.11,28.97 15.17,38.69 8.94,6.41 21,12.83 35.97,12.83l0 0zm99.36 -57.95c0,12.83 0,25.67 -6.03,35.39 -2.92,13.03 -12.06,22.56 -21,32.28 -9.14,9.72 -21,16.14 -33.06,22.56 -12.06,6.61 -27.22,6.61 -39.28,6.61 -14.97,0 -27.03,-3.31 -39.08,-6.61 -12.06,-6.42 -24.11,-12.83 -33.06,-19.25 -9.14,-9.72 -18.08,-19.44 -21.19,-32.28 -6.03,-13.03 -6.03,-22.56 -6.03,-35.58 0,-12.83 3.11,-25.86 9.14,-35.58 6.03,-9.53 12.06,-22.56 21,-28.97 9.14,-9.72 21.19,-16.14 33.25,-19.44 12.06,-3.11 24.11,-6.42 35.97,-6.42 12.06,0 24.11,3.31 36.17,6.42 12.06,3.31 24.11,9.72 33.06,19.44 9.14,9.72 18.08,19.44 21.19,28.97 5.84,6.6 8.95,19.43 8.95,32.46z"></path>
   </g>
   <g>
    <path class="fil4" d="M3226.59 6416.48l0 0c14.97,0 27.03,-6.61 36.17,-16.33 8.94,-9.53 12.06,-22.56 12.06,-38.69 0,-16.14 -6.03,-28.97 -15.17,-38.69 -8.94,-9.72 -21,-16.14 -36.17,-12.83 -14.97,0 -23.92,6.42 -33.06,16.14 -8.94,9.53 -14.97,22.56 -14.97,38.69 0,16.14 2.92,28.97 14.97,38.69 9.14,6.6 21.01,13.02 36.17,13.02l0 0zm99.17 -58.14c0,12.83 0,25.67 -6.03,35.39 -3.11,13.03 -12.06,22.75 -21.19,32.28 -8.94,9.72 -21,16.14 -33.06,22.75 -12.06,6.42 -27.03,6.42 -39.08,6.42 -14.97,0 -27.03,-3.31 -39.08,-6.42 -12.06,-6.61 -24.11,-13.03 -33.25,-19.44 -8.94,-9.72 -18.08,-19.44 -21,-32.28 -6.03,-13.03 -6.03,-22.56 -6.03,-35.58 0,-12.83 3.11,-25.86 8.94,-35.39 6.03,-9.72 12.06,-22.75 21.19,-29.17 8.94,-9.72 21,-16.14 33.06,-19.25 12.06,-3.31 24.11,-6.61 36.17,-6.61 12.06,0 24.11,3.31 36.17,6.61 12.06,3.11 24.11,9.53 33.06,19.25 8.94,9.72 18.08,19.44 21,29.17 6.02,6.41 9.13,19.44 9.13,32.27z"></path>
   </g>
   <path class="fil4" d="M3370.68 6451.28c-6.03,-70.97 -6.03,-106.56 -12.06,-180.64 17.89,0 27.03,-3.31 48.03,-3.31 30.14,35.58 45.31,51.72 78.36,84 2.92,3.31 2.92,6.42 8.94,9.72 3.11,6.42 9.14,12.83 12.06,19.44 -2.92,-6.61 -2.92,-13.03 -6.03,-19.44 0,-6.42 -2.92,-9.72 -2.92,-16.14 -3.11,-35.58 -6.03,-51.72 -9.14,-87.11 18.08,-3.31 27.22,-3.31 48.22,-6.61 8.94,70.97 14.97,106.36 24.11,177.53 -21,3.11 -30.14,3.11 -51.14,6.42 -33.25,-32.28 -51.14,-48.42 -81.28,-84 -3.11,-3.31 -3.11,-6.42 -9.14,-9.72 -2.92,-6.42 -6.03,-12.83 -12.06,-19.25 3.11,6.42 3.11,12.83 3.11,19.25 0,6.42 2.92,9.72 2.92,16.14 3.11,35.58 3.11,51.72 6.03,87.31 -17.88,3.11 -27.01,6.41 -48.01,6.41z"></path>
   <path class="fil4" d="M3364.84 6445.45c-6.03,-70.97 -6.03,-106.56 -12.06,-180.64 18.08,0 27.03,-3.31 48.22,-3.31 30.14,35.58 45.11,51.72 78.17,84 3.11,3.31 3.11,6.42 9.14,9.72 2.92,6.42 8.94,12.83 12.06,19.44 -3.11,-6.61 -3.11,-13.03 -6.03,-19.44 0,-6.42 -3.11,-9.72 -3.11,-16.14 -2.92,-35.58 -6.03,-51.72 -8.94,-87.11 18.08,-3.31 27.03,-3.31 48.22,-6.61 8.94,71.17 14.97,106.56 23.92,177.53 -21,3.11 -29.94,3.11 -51.14,6.42 -33.06,-32.28 -51.14,-48.42 -81.28,-84 -2.92,-3.11 -2.92,-6.42 -8.94,-9.72 -3.11,-6.42 -6.03,-12.83 -12.06,-19.25 2.92,6.42 2.92,12.83 2.92,19.25 0,6.61 3.11,9.72 3.11,16.14 2.92,35.58 2.92,51.72 6.03,87.11 -18.09,3.3 -27.23,6.61 -48.23,6.61z"></path>
   <path class="fil4" d="M3704.73 6225.34c2.92,19.44 6.03,32.47 12.06,51.72 -9.14,-6.42 -14.97,-9.72 -24.11,-9.72 -8.94,0 -14.97,-3.11 -24.11,0 -14.97,3.31 -24.11,9.72 -33.06,22.75 -6.03,9.53 -9.14,25.67 -6.03,38.69 2.92,12.83 8.94,25.86 21,32.28 12.06,6.42 24.11,9.72 39.28,6.42 8.94,-3.11 14.97,-6.42 21,-9.72 6.03,-3.11 12.06,-12.83 18.08,-22.56 2.92,19.44 6.03,32.28 12.06,51.72 -6.03,6.42 -15.17,9.72 -24.11,12.83 -9.14,3.31 -14.97,6.42 -24.11,9.72 -8.94,3.31 -21,3.31 -30.14,3.31 -8.94,0 -18.08,-3.31 -27.03,-6.61 -14.97,-6.42 -27.03,-16.14 -39.08,-25.67 -9.14,-13.03 -15.17,-25.86 -18.08,-45.31 -3.11,-12.83 -3.11,-25.86 0,-38.69 2.92,-13.03 8.94,-22.56 14.97,-35.58 6.03,-9.72 15.17,-19.25 24.11,-25.86 8.94,-6.42 21,-9.72 33.06,-12.83 9.14,-3.31 15.17,-3.31 24.11,-3.31 12.05,3.11 21.19,3.11 30.13,6.42z"></path>
   <path class="fil4" d="M3699.09 6219.7c2.92,19.25 6.03,32.28 11.86,51.53 -8.94,-6.42 -14.97,-9.72 -23.92,-9.72 -9.14,0 -15.17,-3.11 -24.11,0 -15.17,3.31 -24.11,9.72 -33.06,22.75 -6.03,9.72 -8.94,25.86 -6.03,38.69 2.92,12.83 8.94,25.86 21,32.28 12.06,6.42 24.11,9.72 39.08,6.42 9.14,-3.11 15.17,-6.42 21.19,-9.72 5.83,-3.11 11.86,-12.83 17.89,-22.56 3.11,19.44 6.03,32.28 12.06,51.72 -6.03,6.42 -14.97,9.72 -24.11,12.83 -8.94,3.31 -14.97,6.42 -23.92,9.72 -9.14,3.31 -21.19,3.31 -30.14,3.31 -9.14,0 -18.08,-3.31 -27.22,-6.61 -14.97,-6.42 -27.03,-16.14 -39.08,-25.67 -8.94,-13.03 -14.97,-25.86 -18.08,-45.31 -2.92,-12.83 -2.92,-25.86 0,-38.69 3.11,-12.83 9.14,-22.56 15.17,-35.58 6.03,-9.72 14.97,-19.25 24.11,-25.86 8.94,-6.42 21,-9.53 33.06,-12.83 8.94,-3.31 14.97,-3.31 24.11,-3.31 12.06,3.3 21,3.3 30.14,6.61z"></path>
   <path class="fil4" d="M3770.84 6386.73c-15.17,-71.17 -24.11,-103.44 -39.28,-174.42 18.08,-6.42 30.14,-6.42 48.22,-12.83 18.08,70.97 27.03,103.25 42.19,174.22 -20.99,3.31 -29.93,6.61 -51.13,13.03z"></path>
   <path class="fil4" d="M3765.2 6380.89c-14.97,-70.97 -24.11,-103.25 -39.08,-174.22 18.08,-6.42 30.14,-6.42 48.22,-12.83 18.08,70.97 27.03,103.25 42,174.22 -21,3.11 -30.14,6.42 -51.14,12.83z"></path>
   <g>
    <path class="fil4" d="M3894.31 6280.17l0 0c21.19,-6.42 30.14,-9.72 48.22,-16.14 -14.97,-19.44 -21,-29.17 -36.17,-48.42 0,0 -2.92,-3.31 -6.03,-6.61 -2.92,-3.11 -6.03,-6.42 -8.94,-12.83 0,3.31 0,9.72 0,12.83 0,3.31 0,9.72 0,13.03 5.84,19.45 5.84,32.28 2.92,58.14l0 0zm-51.13 87.11c9.14,-77.39 12.06,-116.08 15.17,-193.67 23.92,-6.42 35.97,-13.03 60.08,-19.44 45.11,58.14 69.22,90.42 117.44,145.25 -21,6.61 -30.14,13.03 -51.14,19.44 -9.14,-9.72 -12.06,-16.14 -18.08,-25.86 -27.03,9.72 -42.19,16.14 -72.33,25.86 0,12.83 0,19.44 0,35.58 -21.2,3.12 -33.06,6.43 -51.14,12.84z"></path>
   </g>
   <g>
    <path class="fil4" d="M3888.48 6274.53l0 0c21,-6.42 30.14,-9.72 48.22,-16.14 -15.17,-19.44 -21.19,-29.17 -36.17,-48.42 0,0 -3.11,-3.31 -6.03,-6.42 -3.11,-3.31 -6.03,-6.61 -9.14,-13.03 0,3.31 0,9.72 0,13.03 0,3.11 0,9.53 0,12.83 6.23,19.46 6.23,32.29 3.12,58.15l0 0zm-51.14 87.11c8.94,-77.39 12.06,-116.28 14.97,-193.67 24.11,-6.42 36.17,-13.03 60.28,-19.44 45.11,58.14 69.22,90.42 117.44,145.25 -21.19,6.42 -30.14,12.83 -51.14,19.25 -8.94,-9.72 -12.06,-16.14 -18.08,-25.86 -27.03,9.72 -42,16.14 -72.14,25.86 0,13.03 0,19.44 0,35.58 -21.19,3.31 -33.24,6.62 -51.33,13.03z"></path>
   </g>
   <path class="fil4" d="M4053.76 6293.01c-24.11,-67.86 -36.17,-100.14 -60.28,-167.81 18.08,-6.42 27.22,-9.72 45.11,-19.44 39.08,22.56 57.17,35.58 99.36,54.83 3.11,0 6.03,3.31 12.06,6.61 6.03,3.11 12.06,9.53 18.08,12.83 -2.92,-6.42 -6.03,-12.83 -8.94,-16.14 -3.11,-6.42 -6.03,-9.72 -6.03,-12.83 -12.06,-32.47 -21.19,-48.42 -33.25,-80.89 18.08,-9.53 27.22,-12.83 45.31,-22.56 30.14,64.56 42,96.83 72.14,161.39 -18.08,9.72 -27.03,13.03 -48.03,22.75 -42.19,-19.44 -63.19,-32.28 -102.47,-55.03 -2.92,0 -6.03,-3.11 -8.94,-6.42 -6.03,-3.11 -9.14,-9.72 -15.17,-12.83 3.11,6.42 6.03,12.83 9.14,16.14 2.92,6.42 2.92,9.72 6.03,12.83 12.06,32.28 18.08,48.42 30.14,84 -27.23,9.73 -36.18,12.84 -54.26,22.57z"></path>
   <path class="fil4" d="M4047.93 6287.37c-23.92,-67.67 -35.97,-99.94 -60.08,-167.81 18.08,-6.42 27.03,-9.72 45.11,-19.44 39.08,22.56 57.17,35.58 99.36,54.83 2.92,0 6.03,3.31 12.06,6.61 6.03,3.11 12.06,9.72 18.08,12.83 -3.11,-6.42 -6.03,-12.83 -9.14,-16.14 -2.92,-6.42 -6.03,-9.72 -6.03,-12.83 -12.06,-32.28 -21,-48.42 -33.06,-80.69 18.08,-9.72 27.03,-13.03 45.11,-22.75 30.14,64.56 42.19,96.83 72.33,161.39 -18.08,9.53 -27.22,12.83 -48.22,22.56 -42.19,-19.44 -63.19,-32.28 -102.28,-54.83 -3.11,0 -6.03,-3.31 -9.14,-6.61 -6.03,-3.11 -8.94,-9.72 -14.97,-12.83 2.92,6.42 6.03,12.83 8.94,16.14 3.11,6.42 3.11,9.72 6.03,12.83 12.06,32.28 18.08,48.42 30.14,84 -27.02,9.9 -36.16,13.21 -54.24,22.74z"></path>
   <g>
    <path class="fil4" d="M4339.59 6112.37l0 0c12.06,-6.42 21,-19.25 24.11,-32.28 2.92,-12.83 2.92,-25.86 -6.03,-42 -6.03,-12.83 -18.08,-22.56 -30.14,-25.67 -12.06,-3.31 -24.11,-3.31 -39.28,6.42 -12.06,6.42 -21,16.14 -23.92,32.28 -3.11,12.83 -3.11,25.86 2.92,42 6.03,12.83 15.17,22.56 30.14,25.67 15.17,3.3 30.15,-0.01 42.2,-6.42l0 0zm66.11 -103.25c6.03,9.72 9.14,22.56 12.06,35.58 0,12.83 0,25.67 -6.03,38.69 -2.92,12.83 -12.06,25.86 -21,35.58 -9.14,9.53 -21.19,19.25 -33.06,28.97 -12.06,6.42 -27.22,12.83 -39.28,12.83 -14.97,3.31 -27.03,3.31 -39.08,0 -12.06,-3.11 -24.11,-9.53 -33.06,-16.14 -9.14,-6.42 -18.08,-16.14 -21.19,-28.97 -6.03,-13.03 -8.94,-22.56 -8.94,-35.58 0,-12.83 2.92,-25.86 6.03,-38.69 6.03,-12.83 12.06,-22.56 21,-35.58 9.14,-9.72 18.08,-19.25 30.14,-25.86 12.06,-6.42 24.11,-12.83 36.17,-12.83 12.06,-3.31 24.11,-3.31 39.08,0 12.06,3.31 24.11,6.42 33.06,12.83 9.13,9.72 18.27,19.44 24.1,29.17z"></path>
   </g>
   <g>
    <path class="fil4" d="M4333.95 6106.53l0 0c12.06,-6.42 21.19,-19.25 24.11,-32.28 3.11,-12.83 3.11,-25.67 -6.03,-42 -6.03,-12.83 -18.08,-22.56 -30.14,-25.67 -12.06,-3.31 -24.11,-3.31 -39.08,6.42 -12.06,6.42 -21,16.14 -24.11,32.28 -2.92,12.83 -2.92,25.86 3.11,42 6.03,12.83 14.97,22.56 29.94,25.86 14.98,3.12 30.15,0 42.2,-6.61l0 0zm66.11 -103.05c6.03,9.72 8.94,22.56 12.06,35.58 0,12.83 0,25.86 -6.03,38.69 -3.11,12.83 -12.06,25.86 -21.19,35.58 -8.94,9.53 -21,19.25 -33.06,28.97 -12.06,6.42 -27.03,12.83 -39.08,12.83 -15.17,3.31 -27.03,3.31 -39.08,0 -12.06,-3.11 -24.11,-9.53 -33.25,-16.14 -8.94,-6.42 -18.08,-16.14 -21,-28.97 -6.03,-12.83 -9.14,-22.56 -9.14,-35.58 0,-12.83 3.11,-25.67 6.03,-38.69 6.03,-12.83 12.06,-22.56 21.19,-35.58 8.94,-9.53 18.08,-19.25 30.14,-25.67 12.06,-6.61 23.92,-13.03 35.97,-13.03 12.06,-3.11 24.11,-3.11 39.28,0 12.06,3.31 24.11,6.42 33.06,13.03 9.13,9.53 18.08,19.26 24.1,28.98z"></path>
   </g>
   <path class="fil4" d="M4459.95 6028.56c-9.14,-13.03 -12.06,-19.44 -21,-35.58 29.94,-19.44 45.11,-32.28 75.25,-54.83 8.94,12.83 12.06,19.25 21,32.28 -27.02,25.66 -42.19,38.69 -75.25,58.13z"></path>
   <path class="fil4" d="M4454.12 6022.73c-8.94,-13.03 -11.86,-19.44 -21,-35.58 30.14,-19.44 45.11,-32.28 75.25,-54.83 9.14,12.83 12.06,19.25 21.19,32.28 -27.22,25.85 -42.19,38.88 -75.44,58.13z"></path>
   <g>
    <path class="fil4" d="M4595.48 5899.45l0 0c18.08,-12.83 27.03,-19.25 42,-35.39 -21,-13.03 -29.94,-19.44 -48.03,-32.28 0,0 -3.11,-3.31 -6.03,-6.61 -3.11,-3.11 -6.03,-6.42 -12.06,-9.53 2.92,3.11 2.92,9.53 2.92,12.83 0,3.31 3.11,6.42 3.11,12.83 6.04,22.57 8.95,35.4 18.09,58.15l0 0zm-27.22 103.25c-14.97,-77.58 -24.11,-112.97 -42,-187.25 21,-16.14 29.94,-25.86 51.14,-42 63.19,38.69 93.33,58.14 159.44,93.53 -18.08,16.14 -27.03,22.75 -42,38.89 -12.06,-6.61 -15.17,-9.72 -27.22,-19.44 -24.11,19.44 -36.17,32.28 -63.19,51.72 3.11,12.83 6.03,19.25 9.14,32.28 -18.09,12.83 -27.23,19.24 -45.31,32.27z"></path>
   </g>
   <g>
    <path class="fil4" d="M4589.65 5893.62l0 0c18.08,-12.83 27.22,-19.25 42.19,-35.39 -21,-13.03 -30.14,-19.44 -48.22,-32.28 0,0 -2.92,-3.31 -6.03,-6.42 -2.92,-3.31 -6.03,-6.61 -12.06,-9.72 3.11,3.11 3.11,9.72 3.11,12.83 0,3.31 2.92,6.42 2.92,13.03 6.03,22.56 9.14,35.39 18.09,57.95l0 0zm-27.03 103.25c-15.17,-77.58 -24.11,-112.97 -42.19,-187.25 21,-16.14 30.14,-25.86 51.14,-42 63.19,38.69 93.33,58.14 159.64,93.53 -18.08,16.14 -27.22,22.75 -42.19,38.89 -12.06,-6.61 -14.97,-9.72 -27.03,-19.44 -24.11,19.44 -36.17,32.28 -63.19,51.72 2.92,12.83 6.03,19.25 8.94,32.28 -18.09,13.02 -27.04,19.43 -45.12,32.27z"></path>
   </g>
   <path class="fil4" d="M4752.01 5851.03c-42.19,-54.83 -66.31,-83.81 -108.5,-138.83 15.17,-12.83 24.11,-22.56 39.28,-35.39 33.06,41.81 51.14,61.25 84.19,103.25 21,-19.44 30.14,-29.17 51.14,-51.72 12.06,13.03 15.17,19.44 27.22,29.17 -36.36,42 -54.25,57.94 -93.33,93.52z"></path>
   <path class="fil4" d="M4746.18 5845.2c-42.19,-54.83 -66.11,-83.81 -108.31,-138.83 14.97,-12.83 24.11,-22.56 39.08,-35.39 33.06,42 51.14,61.25 84.39,103.25 21,-19.44 29.94,-28.97 51.14,-51.72 12.06,13.03 14.97,19.44 27.03,29.17 -36.17,41.99 -54.25,58.13 -93.33,93.52z"></path>
  </g>
  <g>
  </g>
  <g>
  </g>
  <g>
  </g>
  <g>
  </g>
  <g>
  </g>
  <g>
  </g>
 </g>
</svg>